<svg height="464pt" viewBox="0 0 464.00003 464" width="464pt" xmlns="http://www.w3.org/2000/svg"><path d="m455.335938 133.152344c-31.296876 0-56.667969-25.367188-56.671876-56.664063v-.160156c-28.273437 8.03125-57.976562-6.988281-68.265624-34.519531-6.101563 2.199218-12.535157 3.332031-19.023438 3.34375-26.875.015625-50.066406-18.839844-55.535156-45.152344-71.148438 28.289062-110.148438 105.082031-91.019532 179.21875 19.128907 74.136719 90.410157 122.472656 166.363282 112.808594 75.953125-9.660156 132.863281-74.308594 132.816406-150.875 0-2.921875-.273438-5.777344-.441406-8.664063-2.71875.425781-5.46875.644531-8.222656.664063zm0 0" fill="#f9bb4b"/><path d="m304 312c0 83.949219-68.050781 152-152 152s-152-68.050781-152-152 68.050781-152 152-152 152 68.050781 152 152zm0 0" fill="#d3843d"/><path d="m152 304c0 8.835938-7.164062 16-16 16s-16-7.164062-16-16 7.164062-16 16-16 16 7.164062 16 16zm0 0" fill="#8b3123"/><path d="m216 360c0 8.835938-7.164062 16-16 16s-16-7.164062-16-16 7.164062-16 16-16 16 7.164062 16 16zm0 0" fill="#8b3123"/><path d="m104 392c0 8.835938-7.164062 16-16 16s-16-7.164062-16-16 7.164062-16 16-16 16 7.164062 16 16zm0 0" fill="#8b3123"/><path d="m208 240c0 8.835938-7.164062 16-16 16s-16-7.164062-16-16 7.164062-16 16-16 16 7.164062 16 16zm0 0" fill="#8b3123"/><path d="m96 248c0 8.835938-7.164062 16-16 16s-16-7.164062-16-16 7.164062-16 16-16 16 7.164062 16 16zm0 0" fill="#8b3123"/><path d="m42.339844 317.652344 11.316406-11.3125 15.996094 16-11.3125 11.3125zm0 0" fill="#f9bb4b"/><path d="m122.347656 362.34375 15.996094-16 11.3125 11.3125-15.996094 16zm0 0" fill="#f9bb4b"/><path d="m392 157.152344c0 8.835937-7.164062 16-16 16s-16-7.164063-16-16c0-8.835938 7.164062-16 16-16s16 7.164062 16 16zm0 0" fill="#8b3123"/><path d="m360 229.152344c0 8.835937-7.164062 16-16 16s-16-7.164063-16-16c0-8.835938 7.164062-16 16-16s16 7.164062 16 16zm0 0" fill="#8b3123"/><path d="m312 117.152344c0 8.835937-7.164062 16-16 16s-16-7.164063-16-16c0-8.835938 7.164062-16 16-16s16 7.164062 16 16zm0 0" fill="#8b3123"/><path d="m240 109.152344c0 8.835937-7.164062 16-16 16s-16-7.164063-16-16c0-8.835938 7.164062-16 16-16s16 7.164062 16 16zm0 0" fill="#8b3123"/><path d="m282.339844 170.808594 11.3125-11.316406 15.996094 16-11.3125 11.3125zm0 0" fill="#d3843d"/><path d="m386.351562 207.496094 15.996094-15.996094 11.3125 11.3125-15.996094 16zm0 0" fill="#d3843d"/><g fill="#f9bb4b"><path d="m186.347656 301.660156 11.3125-11.3125 16 15.996094-11.316406 11.316406zm0 0"/><path d="m122.347656 218.34375 15.996094-16 11.316406 11.316406-16 15.996094zm0 0"/><path d="m154.347656 413.660156 11.3125-11.3125 16 15.996094-11.316406 11.3125zm0 0"/><path d="m250.34375 282.34375 15.996094-15.996094 11.316406 11.3125-16 15.996094zm0 0"/><path d="m242.339844 333.660156 11.316406-11.316406 15.996094 16-11.3125 11.3125zm0 0"/></g><path d="m250.34375 71.496094 16-15.996094 11.3125 11.3125-15.996094 16zm0 0" fill="#d3843d"/><path d="m330.351562 119.5 15.996094-15.996094 11.316406 11.3125-16 16zm0 0" fill="#d3843d"/></svg>