<?xml version="1.0" encoding="utf-8"?>
<!-- Generator: Adobe Illustrator 19.2.0, SVG Export Plug-In . SVG Version: 6.00 Build 0)  -->
<svg version="1.1" id="Layer_1" xmlns="http://www.w3.org/2000/svg" xmlns:xlink="http://www.w3.org/1999/xlink" x="0px" y="0px"
	 viewBox="0 0 150 150" style="enable-background:new 0 0 150 150;" xml:space="preserve">
<style type="text/css">
	.st0{fill:#C29F54;}
	.st1{fill:#FFFFFF;}
	.st2{fill:#FD94FF;}
	.st3{fill:#72A788;}
	.st4{fill:#A2DDD1;}
	.st5{fill:#5D8B71;}
	.st6{fill:#E6E4DA;}
	.st7{fill:#8BB9B1;}
	.st8{fill:#365C3C;}
	.st9{fill:#F8F8F5;}
	.st10{fill:#E9E9E7;}
	.st11{fill:#C6D6A3;}
	.st12{fill:#A6BB88;}
	.st13{fill:#7A9E5B;}
	.st14{fill:#FFFCE6;}
	.st15{fill:#F37A5D;}
	.st16{fill:#DC6F54;}
	.st17{fill:#B89278;}
	.st18{fill:#A3826B;}
	.st19{fill:#EBE9D7;}
	.st20{fill:#84655A;}
	.st21{fill:#FFD425;}
	.st22{fill:#FFC628;}
	.st23{fill:#FFBA08;}
	.st24{fill:#937C66;}
	.st25{fill:#A58B71;}
	.st26{fill:#9D856C;}
	.st27{fill:#AE9277;}
	.st28{fill:#8C7661;}
	.st29{fill:#FCEF98;}
	.st30{fill:#E4E3D3;}
	.st31{fill:#B97595;}
	.st32{fill:#6D503E;}
	.st33{fill:#C2D4DD;}
	.st34{fill:#915B76;}
	.st35{fill:#D1D0C3;}
	.st36{fill:#B7C9D1;}
	.st37{fill:#A96B89;}
	.st38{fill:#674B3A;}
	.st39{fill:#FFFDE7;}
	.st40{fill:#D385A9;}
	.st41{fill:#7B5A46;}
	.st42{fill:#D9E6ED;}
	.st43{fill:#EFEFE1;}
	.st44{fill:#0D6EA9;}
	.st45{fill:#B33335;}
	.st46{fill:#E59B30;}
	.st47{fill:#A6A8AB;}
	.st48{fill:#3A704D;}
	.st49{fill:#58595B;}
	.st50{fill:#414042;}
	.st51{fill:#2B496C;}
	.st52{fill:#B2B5B7;}
	.st53{fill:#302B29;}
	.st54{fill:#D5C7A7;}
	.st55{fill:#C0AE8C;}
	.st56{fill:#203C5E;}
	.st57{fill:#A5A8A7;}
	.st58{fill:#201D1C;}
	.st59{fill:#FBCE3F;}
	.st60{fill:#F8BD32;}
	.st61{fill:#654D31;}
	.st62{fill:#EBA537;}
	.st63{fill:#A1485F;}
	.st64{fill:#E1BEA1;}
	.st65{fill:#924055;}
	.st66{fill:#B25169;}
	.st67{fill:#FACFE2;}
	.st68{fill:#F9C5DC;}
	.st69{fill:#D1B297;}
	.st70{fill:#753E56;}
	.st71{fill:#BC6254;}
	.st72{fill:#B15C4F;}
	.st73{fill:#90AA4E;}
	.st74{fill:#859D47;}
	.st75{fill:#627738;}
	.st76{fill:#7F9842;}
	.st77{fill:#77903C;}
	.st78{fill:#9A4F44;}
	.st79{fill:#8FD2E6;}
	.st80{fill:#78CBE4;}
	.st81{fill:#35B8CC;}
	.st82{fill:#00A1B6;}
	.st83{fill:#FFFDB9;}
	.st84{fill:#FFF68A;}
	.st85{fill:#FFE86A;}
	.st86{fill:#FFE142;}
	.st87{fill:#FFA1E9;}
	.st88{fill:#FF90E6;}
	.st89{fill:#E147BB;}
	.st90{fill:#DF3FAF;}
	.st91{fill:#925BD1;}
	.st92{fill:#FFD700;}
	.st93{fill:#FFEE75;}
	.st94{fill:#B3237A;}
	.st95{fill:#FF7CDC;}
	.st96{fill:#007E93;}
	.st97{fill:#5AB2D3;}
	.st98{fill:#72C9CB;}
	.st99{fill:#E5E6E7;}
	.st100{fill:#8094A1;}
	.st101{fill:#6D5A4D;}
	.st102{fill:#ACC665;}
	.st103{fill:#EDDD42;}
	.st104{fill:#EBC919;}
	.st105{fill:#9CB45C;}
	.st106{fill:#EBD339;}
	.st107{fill:#A4BD61;}
	.st108{fill:#808184;}
	.st109{fill:#F3869B;}
	.st110{fill:#FDE2DD;}
	.st111{fill:#ECCACA;}
	.st112{fill:#F593A2;}
	.st113{fill:#FFD76D;}
	.st114{fill:#E3C063;}
	.st115{fill:#E37D91;}
	.st116{fill:#CA7083;}
	.st117{fill:#FFE27A;}
	.st118{fill:#48484A;}
	.st119{fill:#424244;}
	.st120{fill:#6B5C4E;}
	.st121{fill:#D9F1F4;}
	.st122{fill:#3F3E40;}
	.st123{fill:#9BBECA;}
	.st124{fill:#564A3E;}
	.st125{fill:#B8D9E2;}
	.st126{fill:#645649;}
	.st127{fill:#766556;}
	.st128{fill:#353738;}
	.st129{fill:#333132;}
	.st130{fill:#3B3B3C;}
	.st131{fill:#231F20;}
	.st132{fill:#D0D2D3;}
	.st133{fill:#6ECAF3;}
	.st134{fill:#CED0D1;}
	.st135{fill:#F6CC78;}
	.st136{fill:#BBBDBF;}
	.st137{fill:#FFB4D3;}
	.st138{opacity:0.2;fill:#FFFFFF;}
	.st139{fill:#9D6F4A;}
	.st140{fill:#A97A4F;}
	.st141{fill:#FEC844;}
	.st142{fill:#C32A30;}
	.st143{fill:#A72226;}
	.st144{fill:#DCA43B;}
	.st145{fill:#8A171A;}
	.st146{fill:#8B6540;}
	.st147{fill:#5DFDFF;}
	.st148{fill:#8B1D24;}
	.st149{fill:#A72730;}
	.st150{fill:#770D18;}
	.st151{fill:#5D050C;}
	.st152{fill:#63C4DE;}
</style>
<g>
	<g>
		<g id="XMLID_5_">
			<g>
				<path class="st139" d="M131.93,12c0,2.76-1.12,5.26-2.93,7.07c-1.54,1.54-3.59,2.58-5.87,2.85c-0.2,0.03-0.39,0.05-0.59,0.06
					c-0.2,0.02-0.41,0.02-0.61,0.02h-18c2.76,0,5.26-1.12,7.07-2.93s2.93-4.31,2.93-7.07c0-5.52-4.48-10-10-10h18
					C127.45,2,131.93,6.48,131.93,12z"/>
				<path class="st139" d="M122.54,21.98c0.2-0.01,0.39-0.03,0.59-0.06C122.94,21.95,122.74,21.97,122.54,21.98z"/>
				<path class="st139" d="M121.93,22c0.2,0,0.41,0,0.61-0.02C122.34,21.99,122.14,22,121.93,22z"/>
				<path class="st140" d="M113.93,12c0,2.76-1.12,5.26-2.93,7.07S106.69,22,103.93,22h-76c-0.34,0-0.67-0.02-1-0.05
					c-5.05-0.5-9-4.77-9-9.95c0-2.76,1.12-5.26,2.93-7.07C22.67,3.12,25.17,2,27.93,2h76C109.45,2,113.93,6.48,113.93,12z"/>
				<path class="st141" d="M74,45c0,7.76,5.91,14.15,13.47,14.92C87.97,59.97,88.48,60,89,60c8.28,0,15-6.72,15-15s-6.72-15-15-15
					c-0.52,0-1.03,0.03-1.53,0.08C79.91,30.85,74,37.24,74,45z M53.93,93l0.15-0.06L51.04,85l-0.87-2.27
					c0.42,0.08,0.86,0.15,1.3,0.19C51.97,82.97,52.48,83,53,83c8.28,0,15-6.72,15-15s-6.72-15-15-15c-0.52,0-1.03,0.03-1.53,0.08
					c-4.24,0.43-7.96,2.62-10.41,5.84l-2.5-6.53L26.93,22v-0.05c0.33,0.03,0.66,0.05,1,0.05h76h18c0.21,0,0.41-0.01,0.61-0.02
					c0.2-0.01,0.4-0.03,0.59-0.06l0.07,0.47L98.01,88.23l-0.49,1.27C95.1,84.47,89.95,81,84,81c-0.52,0-1.03,0.03-1.53,0.08
					C74.91,81.85,69,88.24,69,96s5.91,14.15,13.47,14.92c0.5,0.05,1.01,0.08,1.53,0.08c2.03,0,3.97-0.4,5.74-1.14l-2.31,6.03
					L75.15,148l-14.16-37h-0.06h-17c-1.65,0-3-1.35-3-3c0-0.82,0.34-1.58,0.88-2.12c0.54-0.54,1.3-0.88,2.12-0.88h4
					c0.82,0,1.58-0.34,2.12-0.88s0.88-1.3,0.88-2.12c0-1.65-1.35-3-3-3h-14c-1.65,0-3-1.35-3-3c0-0.82,0.34-1.58,0.88-2.12
					S33.11,93,33.93,93H53.93z"/>
				<path class="st142" d="M50.17,82.72c0.43,0.09,0.86,0.16,1.3,0.2c-0.44-0.04-0.88-0.11-1.3-0.19V82.72z"/>
				<circle class="st142" cx="53" cy="67.963" r="15"/>
				<path class="st143" d="M52.992,52.948c-1.944,0-3.797,0.382-5.503,1.056c5.561,2.198,9.505,7.611,9.505,13.951
					c0,6.34-3.943,11.753-9.505,13.951c1.706,0.674,3.558,1.056,5.503,1.056C61.277,82.963,68,76.24,68,67.955
					C68,59.671,61.277,52.948,52.992,52.948z"/>
				<circle class="st142" cx="89.086" cy="45.01" r="15"/>
				<path class="st143" d="M89.078,29.995c-1.944,0-3.797,0.382-5.503,1.056c5.561,2.198,9.505,7.611,9.505,13.951
					c0,6.34-3.943,11.753-9.505,13.951c1.706,0.674,3.558,1.056,5.503,1.056c8.284,0,15.008-6.723,15.008-15.008
					C104.086,36.718,97.363,29.995,89.078,29.995z"/>
				<circle class="st142" cx="84" cy="96.008" r="15"/>
				<path class="st143" d="M83.992,80.992c-1.944,0-3.797,0.382-5.503,1.056c5.561,2.198,9.505,7.611,9.505,13.951
					c0,6.34-3.943,11.753-9.505,13.951c1.706,0.674,3.558,1.056,5.503,1.056C92.277,111.008,99,104.284,99,96
					C99,87.716,92.277,80.992,83.992,80.992z"/>
			</g>
		</g>
	</g>
	<g>
		<path class="st144" d="M41.06,60.921c-0.805,0-1.562-0.489-1.868-1.286l-14.13-36.92c-0.395-1.031,0.122-2.188,1.153-2.583
			c1.03-0.393,2.188,0.121,2.583,1.153l14.13,36.92c0.395,1.031-0.121,2.188-1.153,2.583C41.539,60.878,41.298,60.921,41.06,60.921z
			"/>
		<path class="st144" d="M54.074,94.97c-0.79,0-1.529-0.467-1.837-1.249l-0.02-0.05l-3.915-10.225
			c-0.396-1.031,0.12-2.188,1.151-2.583c1.027-0.397,2.188,0.119,2.583,1.151l3.911,10.211c0.394,1.028-0.108,2.207-1.136,2.604
			C54.569,94.925,54.319,94.97,54.074,94.97z"/>
		<path class="st144" d="M75.15,150c-0.828,0-1.571-0.511-1.868-1.285l-14.16-37c-0.395-1.031,0.122-2.188,1.153-2.583
			c1.031-0.393,2.188,0.121,2.583,1.153l12.291,32.117l12.724-33.258c0.396-1.032,1.554-1.549,2.583-1.151
			c1.031,0.395,1.547,1.552,1.151,2.583l-14.589,38.139C76.723,149.488,75.979,150,75.15,150z"/>
		<path class="st144" d="M97.52,91.501c-0.24,0-0.483-0.044-0.721-0.135c-1.03-0.398-1.543-1.557-1.146-2.587l0.49-1.27
			l25.188-65.835c0.395-1.031,1.553-1.547,2.583-1.153c1.031,0.395,1.548,1.551,1.153,2.583L99.386,90.221
			C99.079,91.014,98.321,91.501,97.52,91.501z"/>
		<path class="st144" d="M33.93,101c-2.757,0-5-2.243-5-5c0-1.314,0.534-2.603,1.466-3.534S32.615,91,33.93,91h20
			c1.104,0,2,0.896,2,2s-0.896,2-2,2h-20c-0.262,0-0.519,0.107-0.706,0.294C33.037,95.481,32.93,95.738,32.93,96
			c0,0.542,0.458,1,1,1c1.104,0,2,0.896,2,2S35.034,101,33.93,101z"/>
		<path class="st144" d="M60.93,113h-17c-2.757,0-5-2.243-5-5c0-1.314,0.534-2.603,1.466-3.534S42.615,103,43.93,103
			c1.104,0,2,0.896,2,2s-0.896,2-2,2c-0.262,0-0.519,0.107-0.706,0.294c-0.187,0.188-0.294,0.444-0.294,0.706c0,0.542,0.458,1,1,1
			h17c1.104,0,2,0.896,2,2S62.034,113,60.93,113z"/>
		<path class="st144" d="M47.93,107h-4c-1.104,0-2-0.896-2-2s0.896-2,2-2h4c0.262,0,0.519-0.107,0.706-0.294
			c0.187-0.188,0.294-0.444,0.294-0.706c0-0.542-0.458-1-1-1h-14c-1.104,0-2-0.896-2-2s0.896-2,2-2h14c2.757,0,5,2.243,5,5
			c0,1.314-0.534,2.603-1.466,3.534S49.244,107,47.93,107z"/>
		<path class="st145" d="M53,85c-0.556,0-1.121-0.029-1.729-0.09c-0.431-0.039-0.917-0.109-1.472-0.214
			C41.802,83.172,36,76.15,36,68c0-3.754,1.199-7.313,3.469-10.292c2.841-3.733,7.142-6.146,11.799-6.618h0.004
			C51.879,51.029,52.444,51,53,51c9.374,0,17,7.626,17,17S62.374,85,53,85z M51.668,55.07c-3.558,0.361-6.845,2.206-9.017,5.061
			C40.917,62.408,40,65.129,40,68c0,6.233,4.435,11.602,10.544,12.766c0.355,0.067,0.731,0.128,1.107,0.162
			C52.143,80.977,52.578,81,53,81c7.168,0,13-5.832,13-13s-5.832-13-13-13C52.578,55,52.143,55.023,51.668,55.07z"/>
		<path class="st145" d="M84,113c-0.556,0-1.121-0.029-1.729-0.09C73.563,112.023,67,104.754,67,96s6.563-16.023,15.268-16.909
			C82.879,79.029,83.444,79,84,79c6.492,0,12.507,3.781,15.322,9.633l0.197,0.434c0.97,2.158,1.48,4.545,1.48,6.934
			c0,6.9-4.119,13.066-10.494,15.708C88.454,112.564,86.264,113,84,113z M84,83c-0.422,0-0.857,0.023-1.332,0.07
			C76.018,83.747,71,89.306,71,96s5.018,12.253,11.672,12.931C83.143,108.977,83.578,109,84,109c1.731,0,3.404-0.331,4.97-0.985
			C93.85,105.992,97,101.277,97,96c0-1.947-0.442-3.891-1.28-5.618l-0.169-0.348C93.334,85.749,88.841,83,84,83z"/>
		<path class="st145" d="M89,62c-0.556,0-1.121-0.029-1.729-0.09C78.563,61.023,72,53.754,72,45s6.563-16.023,15.268-16.909
			l0.004-0.001C87.879,28.029,88.444,28,89,28c9.374,0,17,7.626,17,17S98.374,62,89,62z M87.672,32.069
			C81.018,32.747,76,38.306,76,45s5.018,12.253,11.672,12.931C88.143,57.977,88.578,58,89,58c7.168,0,13-5.832,13-13
			s-5.832-13-13-13C88.579,32,88.145,32.022,87.672,32.069L87.672,32.069z"/>
		<path class="st146" d="M121.93,24h-94c-0.402,0-0.792-0.022-1.183-0.059C20.574,23.331,15.93,18.197,15.93,12
			c0-3.204,1.249-6.217,3.517-8.484C21.713,1.248,24.726,0,27.93,0h94c6.617,0,12,5.383,12,12c0,3.203-1.248,6.216-3.515,8.484
			c-1.894,1.893-4.397,3.108-7.051,3.422c-0.175,0.029-0.446,0.057-0.717,0.071C122.405,23.989,122.173,24,121.93,24z M27.93,4
			c-2.136,0-4.144,0.832-5.655,2.344C20.763,7.856,19.93,9.864,19.93,12c0,4.132,3.094,7.554,7.197,7.96
			C27.382,19.983,27.652,20,27.93,20h94c0.177,0,0.345-0.009,0.513-0.018c0.12-0.006,0.249-0.018,0.372-0.037
			c1.846-0.22,3.511-1.029,4.771-2.289c1.511-1.513,2.344-3.521,2.344-5.656c0-4.411-3.589-8-8-8H27.93z"/>
	</g>
</g>
</svg>
