<?xml version="1.0" encoding="utf-8"?>
<!-- Generator: Adobe Illustrator 19.2.1, SVG Export Plug-In . SVG Version: 6.00 Build 0)  -->
<svg version="1.1" id="Layer_1" xmlns="http://www.w3.org/2000/svg" xmlns:xlink="http://www.w3.org/1999/xlink" x="0px" y="0px"
	 viewBox="0 0 130.059 150" style="enable-background:new 0 0 130.059 150;" xml:space="preserve">
<style type="text/css">
	.st0{display:none;fill:none;stroke:#FFFFFF;stroke-width:2;stroke-linecap:round;stroke-miterlimit:10;}
	.st1{fill:#5CDBA9;}
	.st2{fill:#5CDBFF;}
	.st3{fill:#42C18E;}
	.st4{fill:#4DC0FF;}
	.st5{fill:#459571;}
	.st6{fill:#457BA4;}
	.st7{fill:#1A9DED;}
	.st8{fill:#1A71ED;}
	.st9{fill:#58595B;}
	.st10{fill:#F9D35B;}
	.st11{fill:#414042;}
	.st12{opacity:0.4;fill:#414042;}
	.st13{fill:#EDDABB;}
	.st14{fill:#DECDB1;}
	.st15{fill:#F8E7D1;}
	.st16{fill:#C4DFED;}
	.st17{fill:#DEF8FF;}
	.st18{fill:#D1F1FF;}
	.st19{fill:#585963;}
	.st20{fill:#FF868A;}
	.st21{fill:#FF9296;}
	.st22{fill:#EC8287;}
	.st23{fill:#272D38;}
	.st24{fill:#F2F2F2;}
	.st25{fill:#59D6D6;}
	.st26{fill:#56C681;}
	.st27{clip-path:url(#SVGID_2_);fill:#E6E6E6;}
	.st28{fill:#54CBCB;}
	.st29{fill:#52BC7A;}
	.st30{fill:#FFD900;}
	.st31{fill:#FFDE00;}
	.st32{fill:#FFA400;}
	.st33{fill:#47413A;}
</style>
<g>
	<path class="st30" d="M107.473,88.83l0.05,0.06C104.029,91.47,99.652,93,94.882,93c-3.384,0-7.47-1.73-11.547-4.16h-0.05
		c-0.11-2.36-0.392-4.66-0.823-6.87c-1.406-7.11-4.398-13.21-8.304-16.97C89.581,65.16,102.664,75.07,107.473,88.83z"/>
	<path class="st31" d="M83.296,89c0.03,0.66,0.04,1.33,0.04,2c0,1.81-0.231,3.47-0.643,5H47.832c-0.412-1.53-0.643-3.19-0.643-5
		c0-0.67,0.01-1.34,0.04-2H83.296z"/>
	<path class="st31" d="M83.286,88.84c0,0.06,0.01,0.11,0.01,0.16H47.23c0-0.05,0.01-0.1,0.01-0.16c0.11-2.36,0.392-4.66,0.823-6.87
		L48.194,82h34.138l0.131-0.03C82.894,84.18,83.175,86.48,83.286,88.84z"/>
	<path class="st31" d="M47.832,96h34.861c-0.713,2.68-1.978,4.97-3.504,7H51.347C49.81,100.97,48.545,98.68,47.832,96z"/>
	<path class="st31" d="M82.462,81.97L82.332,82H48.194l-0.131-0.03c1.406-7.11,4.398-13.21,8.304-16.97
		c0.06-0.06,0.131-0.12,0.191-0.18C59.138,62.4,62.11,61,65.263,61c3.153,0,6.125,1.4,8.705,3.82c0.06,0.06,0.131,0.12,0.191,0.18
		C78.065,68.76,81.057,74.86,82.462,81.97z"/>
	<path class="st31" d="M51.347,103h27.842c-2.008,2.66-4.458,4.89-6.747,7H58.084C55.795,107.89,53.345,105.66,51.347,103z"/>
	<path class="st31" d="M69.942,40.8c5.462,1.92,9.378,7.11,9.378,13.2c0,3.73-1.466,7.13-3.866,9.63
		c-0.502,0.39-0.984,0.78-1.466,1.17l-0.02,0.02C71.388,62.4,68.416,61,65.263,61c-3.153,0-6.125,1.4-8.705,3.82l-0.02-0.02
		c-0.482-0.39-0.964-0.78-1.466-1.17c-2.4-2.5-3.866-5.9-3.866-9.63c0-6.2,4.046-11.45,9.649-13.29
		c1.386-0.46,2.872-0.71,4.408-0.71C66.899,40,68.476,40.28,69.942,40.8z"/>
	<path class="st31" d="M58.084,110h14.358c-3.815,3.52-7.159,6.7-7.179,10.97C65.243,116.7,61.899,113.52,58.084,110z"/>
	<path class="st30" d="M55.072,63.63c0.502,0.39,0.984,0.78,1.466,1.17l0.02,0.02c-0.06,0.06-0.131,0.12-0.191,0.18
		c-15.422,0.16-28.505,10.07-33.315,23.83l-0.05,0.06c-4.83-3.57-7.942-9.14-7.942-15.39c0-10.77,9.217-19.5,20.583-19.5
		C41.286,54,48.867,58.8,55.072,63.63z"/>
	<path class="st30" d="M56.367,65c-3.906,3.76-6.898,9.86-8.304,16.97c-0.432,2.21-0.713,4.51-0.823,6.87h-0.05
		C43.113,91.27,39.027,93,35.643,93c-4.769,0-9.147-1.53-12.641-4.11l0.05-0.06C27.862,75.07,40.945,65.16,56.367,65z"/>
	<path class="st31" d="M55.072,63.63c0.502,0.39,0.984,0.78,1.466,1.17l0.02,0.02c-0.06,0.06-0.131,0.12-0.191,0.18
		c-15.422,0.16-28.505,10.07-33.315,23.83l-0.05,0.06c-4.83-3.57-7.942-9.14-7.942-15.39c0-10.77,9.217-19.5,20.583-19.5
		C41.286,54,48.867,58.8,55.072,63.63z"/>
	<path class="st32" d="M94.882,54c-5.643,0-13.223,4.8-19.428,9.63c2.4-2.5,3.866-5.9,3.866-9.63c0-6.09-3.916-11.28-9.378-13.2
		c-1.422-0.504-2.949-0.778-4.533-0.794v79.491c0.676-3.554,3.67-6.394,7.033-9.497c2.289-2.11,4.739-4.34,6.747-7
		c1.526-2.03,2.791-4.32,3.504-7c0.412-1.53,0.643-3.19,0.643-5c0-0.67-0.01-1.34-0.04-2c0-0.05-0.01-0.1-0.01-0.16h0.05
		C87.412,91.27,91.499,93,94.882,93c4.769,0,9.147-1.53,12.641-4.11c4.83-3.57,7.942-9.14,7.942-15.39
		C115.466,62.73,106.248,54,94.882,54z"/>
	<path class="st31" d="M56.367,65c-3.906,3.76-6.898,9.86-8.304,16.97c-0.432,2.21-0.713,4.51-0.823,6.87h-0.05
		C43.113,91.27,39.027,93,35.643,93c-4.769,0-9.147-1.53-12.641-4.11l0.05-0.06C27.862,75.07,40.945,65.16,56.367,65z"/>
	<g>
		<path class="st33" d="M129.896,40.776c-0.016-2.262-1.228-4.367-3.156-5.492L68.017,0.821c-1.95-1.159-4.377-1.165-6.327-0.019
			L3.104,34.995c-1.943,1.14-3.142,3.25-3.127,5.5l0.15,68.678c0.015,2.262,1.226,4.368,3.156,5.492l58.731,34.47
			c0.981,0.576,2.08,0.864,3.176,0.864c1.089,0,2.175-0.284,3.142-0.852l58.582-34.189l0.005-0.003
			c1.942-1.141,3.14-3.254,3.126-5.509L129.896,40.776z M124.894,111.506l-58.582,34.189c-0.695,0.408-1.566,0.405-2.271-0.01
			L5.303,111.212c-0.72-0.419-1.171-1.21-1.176-2.056l-0.15-68.679c-0.005-0.834,0.436-1.613,1.146-2.03L63.709,4.255
			c0.348-0.204,0.737-0.307,1.127-0.307c0.396,0,0.792,0.105,1.146,0.317l58.737,34.473c0.72,0.419,1.17,1.211,1.176,2.057
			l0.149,68.668C126.05,110.303,125.61,111.086,124.894,111.506z"/>
		<path class="st33" d="M94.883,52c-3.713,0-8.377,1.775-13.908,5.271c0.222-1.066,0.344-2.159,0.344-3.271
			c0-5.715-3.075-10.917-7.883-13.756c2.872-2.415,6.161-3.854,9.555-4.156c0.93,1.731,2.76,2.912,4.862,2.912
			c3.041,0,5.515-2.467,5.515-5.5S90.895,28,87.854,28c-2.555,0-4.704,1.745-5.326,4.102c-4.818,0.454-9.424,2.699-13.175,6.426
			c-2.569-0.673-5.312-0.697-7.896-0.068c-3.764-3.702-8.328-5.909-13.097-6.358C47.737,29.745,45.588,28,43.033,28
			c-3.041,0-5.515,2.467-5.515,5.5s2.474,5.5,5.515,5.5c2.103,0,3.933-1.181,4.863-2.913c3.339,0.297,6.573,1.693,9.403,4.033
			c-4.938,2.804-8.093,8.047-8.093,13.88c0,1.112,0.123,2.205,0.344,3.271C44.019,53.775,39.356,52,35.643,52
			C23.191,52,13.06,61.645,13.06,73.5c0,6.69,3.19,12.886,8.754,16.999C25.802,93.443,30.584,95,35.643,95
			c2.689,0,5.909-0.952,9.585-2.806c0.079,1.487,0.301,2.937,0.672,4.32c0.718,2.698,1.979,5.215,3.848,7.687
			c2.045,2.723,4.445,4.933,6.766,7.07l0.215,0.198c3.626,3.345,6.097,5.836,6.478,8.751c-1.208,1.322-2.966,3.582-2.966,5.549
			c0,2.884,2.249,5.23,5.013,5.23c2.769,0,5.021-2.347,5.021-5.23c0-1.5-1.008-3.361-2.96-5.515
			c0.366-2.929,2.843-5.427,6.483-8.784l0.232-0.215c2.314-2.132,4.707-4.337,6.758-7.054c1.868-2.485,3.124-5,3.838-7.684
			c0.372-1.387,0.594-2.837,0.673-4.324C88.974,94.048,92.194,95,94.883,95c5.059,0,9.841-1.557,13.829-4.502
			c5.563-4.112,8.754-10.308,8.754-16.998C117.466,61.645,107.335,52,94.883,52z M81.077,94H49.448
			c-0.167-0.972-0.259-1.974-0.259-3h32.146C81.336,92.025,81.244,93.027,81.077,94z M52.392,101c-0.684-0.989-1.252-1.987-1.708-3
			h29.159c-0.455,1.012-1.021,2.009-1.703,3H52.392z M49.374,87c0.09-1.007,0.209-2.009,0.364-3h31.051
			c0.157,0.999,0.277,2.004,0.367,3H49.374z M50.566,80c1.466-5.656,4.031-10.521,7.255-13.624l0.104-0.098
			C60.213,64.134,62.75,63,65.263,63c2.513,0,5.05,1.134,7.297,3.24l0.212,0.201c3.165,3.046,5.723,7.906,7.188,13.559H50.566z
			 M74.067,64.896L74.067,64.896l-0.008,0.009L74.067,64.896z M87.854,32c0.835,0,1.515,0.673,1.515,1.5s-0.68,1.5-1.515,1.5
			s-1.514-0.673-1.514-1.5S87.019,32,87.854,32z M43.033,35c-0.835,0-1.515-0.673-1.515-1.5s0.68-1.5,1.515-1.5
			s1.514,0.673,1.514,1.5S43.868,35,43.033,35z M61.485,42.608c2.515-0.834,5.305-0.804,7.794,0.079
			c4.81,1.691,8.041,6.238,8.041,11.313c0,3.053-1.148,5.941-3.251,8.177c-0.022,0.017-0.043,0.034-0.064,0.051
			C71.295,60.116,68.304,59,65.263,59c-3.041,0-6.032,1.116-8.741,3.229c-0.024-0.018-0.046-0.037-0.07-0.056
			c-2.092-2.214-3.246-5.111-3.246-8.173C53.206,48.812,56.53,44.235,61.485,42.608z M17.06,73.5c0-9.649,8.336-17.5,18.583-17.5
			c3.723,0,9.144,2.547,15.774,7.382C38.551,65.22,27.404,73.615,22.19,85.563C18.906,82.325,17.06,78.051,17.06,73.5z
			 M25.47,88.147c4.443-11.131,14.556-19.015,26.321-20.765c-2.626,3.826-4.603,8.703-5.69,14.204
			c-0.381,1.951-0.638,3.955-0.782,6.02C41.388,89.849,38.13,91,35.643,91C31.975,91,28.489,90.018,25.47,88.147z M65.263,114.802
			c-0.646-0.981-1.417-1.907-2.251-2.802h4.502C66.68,112.895,65.909,113.821,65.263,114.802z M65.253,127
			c-0.549,0-1.013-0.563-1.014-1.204c0.038-0.326,0.448-1.018,1.017-1.773c0.653,0.859,0.987,1.496,1.019,1.747
			C66.275,126.437,65.807,127,65.253,127z M71.658,108h-12.79c-1.052-0.97-2.109-1.961-3.126-3h19.044
			C73.767,106.039,72.71,107.03,71.658,108z M85.209,87.608c-0.142-2.031-0.399-4.053-0.785-6.026
			c-1.087-5.504-3.067-10.385-5.684-14.199c11.763,1.751,21.873,9.634,26.316,20.763C102.036,90.018,98.55,91,94.883,91
			C92.397,91,89.139,89.85,85.209,87.608z M108.336,85.562c-5.215-11.947-16.362-20.343-29.227-22.18
			C85.738,58.547,91.16,56,94.883,56c10.247,0,18.583,7.851,18.583,17.5C113.466,78.051,111.619,82.325,108.336,85.562z"/>
	</g>
</g>
</svg>
