<?xml version="1.0" encoding="utf-8"?>
<!-- Generator: Adobe Illustrator 19.2.1, SVG Export Plug-In . SVG Version: 6.00 Build 0)  -->
<svg version="1.1" id="Layer_1" xmlns="http://www.w3.org/2000/svg" xmlns:xlink="http://www.w3.org/1999/xlink" x="0px" y="0px"
	 viewBox="0 0 150 150" style="enable-background:new 0 0 150 150;" xml:space="preserve">
<style type="text/css">
	.st0{display:none;fill:none;stroke:#FFFFFF;stroke-width:2;stroke-linecap:round;stroke-miterlimit:10;}
	.st1{fill:#5CDBA9;}
	.st2{fill:#5CDBFF;}
	.st3{fill:#42C18E;}
	.st4{fill:#4DC0FF;}
	.st5{fill:#459571;}
	.st6{fill:#457BA4;}
	.st7{fill:#1A9DED;}
	.st8{fill:#1A71ED;}
	.st9{fill:#58595B;}
	.st10{fill:#F9D35B;}
	.st11{fill:#414042;}
	.st12{opacity:0.4;fill:#414042;}
	.st13{fill:#EDDABB;}
	.st14{fill:#DECDB1;}
	.st15{fill:#F8E7D1;}
	.st16{fill:#C4DFED;}
	.st17{fill:#DEF8FF;}
	.st18{fill:#D1F1FF;}
	.st19{fill:#585963;}
	.st20{fill:#FF868A;}
	.st21{fill:#FF9296;}
	.st22{fill:#EC8287;}
	.st23{fill:#272D38;}
	.st24{fill:#F2F2F2;}
	.st25{fill:#59D6D6;}
	.st26{fill:#56C681;}
	.st27{clip-path:url(#SVGID_2_);fill:#E6E6E6;}
	.st28{fill:#54CBCB;}
	.st29{fill:#52BC7A;}
	.st30{fill:#FFD900;}
	.st31{fill:#FFDE00;}
	.st32{fill:#FFA400;}
	.st33{fill:#47413A;}
	.st34{fill:#FFD16A;}
	.st35{fill:#FF888A;}
	.st36{fill:#E1E2E3;}
	.st37{fill:#45AEFF;}
	.st38{fill:#FFC749;}
	.st39{fill:#FF6A71;}
	.st40{fill:#B7B9BB;}
	.st41{fill:#4585FF;}
	.st42{fill:#52597A;}
	.st43{fill:#699BFF;}
	.st44{fill:#64428F;}
	.st45{fill:#FFFFFF;}
	.st46{fill:#5C8BFF;}
	.st47{fill:#D9D9D9;}
	.st48{fill:#49A86E;}
	.st49{fill:#F020D4;}
	.st50{fill:#B363E7;}
	.st51{fill:#FFD684;}
	.st52{fill:#D420C1;}
	.st53{fill:#FFB876;}
	.st54{fill:#A14DD8;}
	.st55{fill:#8248AA;}
	.st56{fill:#77675D;}
	.st57{fill:#C7AB91;}
	.st58{fill:#B59D84;}
	.st59{fill:#675A51;}
	.st60{fill:#9E8774;}
	.st61{fill:#D4B699;}
	.st62{fill:#554650;}
</style>
<g>
	<g>
		<path class="st49" d="M75,1.903c40.32,0,73,32.68,73,73c0,29.22-17.16,54.43-41.96,66.08l-0.04-0.08v-10v-58
			c0-8.56-3.47-16.31-9.08-21.92s-13.36-9.08-21.92-9.08c-17.12,0-31,13.88-31,31v58v10l-0.04,0.08
			C19.16,129.333,2,104.123,2,74.903C2,34.583,34.68,1.903,75,1.903z"/>
		<path class="st50" d="M106,140.903l0.04,0.08c-9.42,4.44-19.94,6.92-31.04,6.92c-0.02,0-0.03,0-0.05,0
			c0.28-0.05,0.54-0.22,0.7-0.49l9.35-16.51h21V140.903z"/>
		<path class="st51" d="M66.57,106.543c-1.68-1.1-3.11-2.53-4.21-4.21l-0.08,0.05l-2.4,2.4c-0.58,0.58-0.88,1.35-0.88,2.12
			c0,0.77,0.3,1.54,0.88,2.12c1.17,1.17,3.07,1.17,4.24,0l2.4-2.4L66.57,106.543z M106,72.903v58H85H64H44v-58
			c0-17.12,13.88-31,31-31c8.56,0,16.31,3.47,21.92,9.08S106,64.343,106,72.903z"/>
		<path class="st45" d="M85,130.903l-9.35,16.51c-0.16,0.27-0.42,0.44-0.7,0.49c-0.12,0-0.25,0-0.37,0c-0.01,0-0.03-0.01-0.05-0.01
			c-0.24-0.06-0.46-0.21-0.61-0.46L64,130.903H85z"/>
		<g>
			<path class="st52" d="M32,74.903C32,39.726,56.878,10.37,90,3.453c-4.842-1.011-9.858-1.549-15-1.549c-40.32,0-73,32.68-73,73
				c0,29.22,17.16,54.43,41.96,66.08l0.04-0.08v-10v-15.896C36.418,103.499,32,89.719,32,74.903z"/>
		</g>
		<path class="st50" d="M73.92,147.433c0.15,0.25,0.37,0.4,0.61,0.46c-10.93-0.06-21.29-2.53-30.57-6.91l0.04-0.08v-10h20
			L73.92,147.433z"/>
		<path class="st49" d="M66.57,106.543l-0.05,0.08l-2.4,2.4c-1.17,1.17-3.07,1.17-4.24,0c-0.58-0.58-0.88-1.35-0.88-2.12
			c0-0.77,0.3-1.54,0.88-2.12l2.4-2.4l0.08-0.05C63.46,104.013,64.89,105.443,66.57,106.543z"/>
		<path class="st36" d="M70.6,130.903H64l9.92,16.53c0.15,0.25,0.37,0.4,0.61,0.46c0.02,0,0.04,0.01,0.05,0.01c0.12,0,0.25,0,0.37,0
			c0.28-0.05,0.54-0.22,0.7-0.49l2.359-4.165L70.6,130.903z"/>
		<g>
			<path class="st53" d="M59.88,109.023c-0.58-0.58-0.88-1.35-0.88-2.12c0-0.77,0.3-1.54,0.88-2.12l1.12-1.12v-30.76
				c0-14.171,9.514-26.114,22.5-29.81c-2.702-0.769-5.551-1.19-8.5-1.19c-17.12,0-31,13.88-31,31v58h17V109.72
				C60.592,109.575,60.206,109.35,59.88,109.023z"/>
		</g>
		<path class="st54" d="M61,130.903H44v10l-0.04,0.08c5.351,2.525,11.069,4.391,17.04,5.551V130.903z"/>
	</g>
	<g>
		<path class="st55" d="M75-0.097c-41.355,0-75,33.645-75,75c0,28.939,16.922,55.588,43.106,67.889
			c9.812,4.631,20.329,7.02,31.265,7.101c0.012,0.001,0.025,0.001,0.037,0.002l0.053,0.009c0.098,0.009,0.196,0.014,0.297,0.014
			c0.054,0,0.11-0.011,0.165-0.014H75c11.15,0,21.881-2.393,31.891-7.109C133.078,130.491,150,103.843,150,74.903
			C150,33.548,116.355-0.097,75-0.097z M62.867,132.903l7.717,12.859c-8.549-0.513-16.792-2.561-24.584-6.067v-6.792H62.867z
			 M67.532,132.903h14.036l-6.815,12.034L67.532,132.903z M86.165,132.903H104v6.791c-7.958,3.576-16.377,5.637-25.137,6.104
			L86.165,132.903z M104,128.903H46v-56c0-15.991,13.01-29,29-29c7.746,0,15.028,3.017,20.506,8.494S104,65.157,104,72.903V128.903z
			 M108,137.766V72.903c0-8.814-3.433-17.102-9.666-23.334c-6.232-6.233-14.52-9.666-23.334-9.666c-18.196,0-33,14.804-33,33v64.863
			C18.817,125.58,4,101.249,4,74.903c0-39.149,31.851-71,71-71s71,31.851,71,71C146,101.248,131.183,125.579,108,137.766z"/>
		<path class="st55" d="M62,78.903c1.104,0,2-0.896,2-2c0-1.654,1.346-3,3-3c0.801,0,1.559,0.313,2.118,0.867
			C69.686,75.345,70,76.103,70,76.903c0,1.104,0.896,2,2,2s2-0.896,2-2c0-1.861-0.724-3.618-2.054-4.962
			c-1.329-1.314-3.086-2.038-4.946-2.038c-3.859,0-7,3.14-7,7C60,78.008,60.895,78.903,62,78.903z"/>
		<path class="st55" d="M83.938,102.594c-2.372,2.739-5.812,4.31-9.438,4.31c-2.436,0-4.799-0.703-6.834-2.033
			c-1.458-0.955-2.68-2.177-3.632-3.632C62.703,99.203,62,96.84,62,94.403c0-1.104-0.896-2-2-2s-2,0.896-2,2
			c0,2.656,0.643,5.242,1.854,7.578l-1.388,1.387c-0.932,0.932-1.466,2.22-1.466,3.534s0.534,2.603,1.466,3.534
			c0.975,0.975,2.254,1.462,3.534,1.462s2.56-0.487,3.534-1.462l1.388-1.388c2.336,1.211,4.922,1.854,7.578,1.854
			c4.787,0,9.329-2.074,12.462-5.69c0.724-0.835,0.633-2.098-0.202-2.821C85.926,101.667,84.661,101.76,83.938,102.594z
			 M61.294,107.609c-0.187-0.188-0.294-0.444-0.294-0.706s0.107-0.519,0.294-0.706l0.869-0.869c0.442,0.499,0.912,0.97,1.412,1.412
			l-0.869,0.869C62.317,107.998,61.682,107.998,61.294,107.609z"/>
		<path class="st55" d="M84,69.903c-3.859,0-7,3.14-7,7c0,1.104,0.896,2,2,2s2-0.896,2-2c0-1.654,1.346-3,3-3
			c0.801,0,1.559,0.313,2.118,0.867C86.686,75.345,87,76.103,87,76.903c0,1.104,0.896,2,2,2s2-0.896,2-2
			c0-1.861-0.724-3.618-2.054-4.962C87.617,70.627,85.86,69.903,84,69.903z"/>
	</g>
</g>
</svg>
