<?xml version="1.0" encoding="utf-8"?>
<!-- Generator: Adobe Illustrator 19.2.1, SVG Export Plug-In . SVG Version: 6.00 Build 0)  -->
<svg version="1.1" id="Layer_1" xmlns="http://www.w3.org/2000/svg" xmlns:xlink="http://www.w3.org/1999/xlink" x="0px" y="0px"
	 viewBox="0 0 109.899 149.99" style="enable-background:new 0 0 109.899 149.99;" xml:space="preserve">
<style type="text/css">
	.st0{fill:#B3C471;}
	.st1{fill:#CAD681;}
	.st2{fill:#585948;}
	.st3{fill:#7D1F4D;}
	.st4{fill:#FFFFFF;}
	.st5{fill:#5CD7FF;}
	.st6{fill:#7BF0D3;}
	.st7{fill:#4579B3;}
	.st8{fill:#E75C54;}
	.st9{fill:#FFE75B;}
	.st10{fill:#C55049;}
	.st11{fill:#E3B347;}
	.st12{fill:#A54242;}
	.st13{fill:#F7CC46;}
	.st14{fill:#E5B72D;}
	.st15{fill:#644E35;}
	.st16{opacity:0.2;}
	.st17{fill:#E5A13F;}
	.st18{fill:#A0A1A4;}
	.st19{fill:#6A5C4F;}
	.st20{fill:#D8F0F3;}
	.st21{fill:#64574B;}
	.st22{fill:#B6D7E0;}
	.st23{fill:#564B40;}
	.st24{fill:#99BCC8;}
	.st25{fill:#49494B;}
	.st26{fill:#EAFFFF;}
	.st27{fill:#756557;}
	.st28{fill:#383A3B;}
	.st29{fill:#2EB67F;}
	.st30{fill:#6D6D70;}
	.st31{fill:#59595B;}
	.st32{fill:#51DEFF;}
	.st33{fill:#40E0D6;}
	.st34{fill:#8FD7FF;}
	.st35{fill:#40CFE9;}
	.st36{fill:#3ED1BC;}
	.st37{fill:#8EB9FF;}
	.st38{fill:#425DB4;}
	.st39{fill:#F2557C;}
	.st40{fill:#CE3A62;}
	.st41{fill:#E3396F;}
	.st42{fill:#F4B0C5;}
	.st43{fill:#E73B60;}
	.st44{fill:#C5284C;}
	.st45{fill:#D92756;}
	.st46{fill:#EAEBEB;}
	.st47{clip-path:url(#SVGID_2_);fill:#E5E5E5;}
	.st48{fill:#D3D3D3;}
	.st49{fill:#E5E5E5;}
	.st50{fill:#254DAA;}
	.st51{fill:#214599;}
	.st52{fill:#F7ACAF;}
	.st53{fill:#EB2E38;}
	.st54{fill:#FFD66F;}
	.st55{fill:#CFA353;}
	.st56{fill:#CFC3BE;}
	.st57{fill:#87685C;}
	.st58{fill:#82D5A2;}
	.st59{fill:#56C681;}
	.st60{fill:#4AB569;}
	.st61{fill:#65CB8C;}
	.st62{fill:#DFE0E1;}
	.st63{fill:#1C9046;}
	.st64{fill:#76D8E8;}
	.st65{fill:#D393FF;}
	.st66{fill:#76D0E3;}
	.st67{fill:#D888FF;}
	.st68{fill:#715D94;}
	.st69{fill:#EA5FC9;}
	.st70{fill:#E04849;}
	.st71{fill:#F4CA94;}
	.st72{fill:#FC5B5A;}
	.st73{fill:#FC88E3;}
	.st74{fill:#FCAA52;}
	.st75{fill:#FDC866;}
	.st76{fill:#7A6CBE;}
	.st77{fill:#9480BE;}
	.st78{fill:#57CC76;}
	.st79{fill:#59E694;}
	.st80{fill:#434244;}
	.st81{fill:#BC936C;}
	.st82{fill:#C69F7B;}
	.st83{fill:#AD8863;}
	.st84{fill:#6F5E4B;}
	.st85{fill:#786652;}
	.st86{fill:#917056;}
	.st87{fill:#9653FF;}
	.st88{fill:#FCAB78;}
	.st89{fill:#5ED95E;}
	.st90{fill:#FDD75E;}
	.st91{fill:#FB5FFF;}
	.st92{fill:#2144B4;}
	.st93{fill:#7F7F7F;}
	.st94{fill:#8C8E91;}
	.st95{fill:#B5B7B9;}
	.st96{fill:#DBC5A8;}
	.st97{fill:#C7B085;}
	.st98{fill:#E882DC;}
	.st99{fill:#D365C4;}
	.st100{fill:#8B476B;}
	.st101{fill:#8FD096;}
	.st102{fill:#79BE7A;}
	.st103{fill:#4B9688;}
	.st104{fill:#2F7A6F;}
	.st105{fill:#E2983A;}
	.st106{fill:#F6A849;}
	.st107{fill:#F6A6B4;}
	.st108{fill:#F8B257;}
	.st109{fill:#DD8D33;}
	.st110{fill:#F09C40;}
	.st111{fill:#F2A54C;}
	.st112{fill:#B67738;}
	.st113{fill:#FFF272;}
	.st114{fill:#F9EDDF;}
</style>
<g>
	<path class="st105" d="M42.5,0.99c3.04,0,5.5,4.7,5.5,10.5s-2.46,10.5-5.5,10.5c-0.17,0-0.33-0.01-0.49-0.04
		C39.2,21.47,37,16.969,37,11.49c0-5.48,2.2-9.98,5.01-10.46C42.17,1,42.33,0.99,42.5,0.99"/>
	<path class="st105" d="M42.5,61.99c3.04,0,5.5,4.7,5.5,10.5s-2.46,10.5-5.5,10.5c-0.17,0-0.33-0.01-0.49-0.04
		C39.2,82.469,37,77.97,37,72.49c0-5.48,2.2-9.98,5.01-10.46C42.17,62,42.33,61.99,42.5,61.99"/>
	<path class="st106" d="M10.5,42.28l-0.24,0.22l-2.04,1.85c-0.94,0.95-0.94,2.48,0,3.42c0.47,0.471,1.09,0.701,1.71,0.701
		c0.61,0,1.23-0.23,1.71-0.701l3.02-2.78l0.07-0.28C13.05,44.31,11.58,43.44,10.5,42.28 M42,0.99l0.01,0.04
		C39.2,1.51,37,6.01,37,11.49c0,5.48,2.2,9.98,5.01,10.46L42,21.99c-11.05,0-20,8.95-20,20s8.95,20,20,20l0.01,0.04
		C39.2,62.51,37,67.01,37,72.49c0,5.48,2.2,9.98,5.01,10.46L42,82.99c-22.64,0-41-18.36-41-41S19.36,0.99,42,0.99"/>
	<path class="st107" d="M14.73,44.71l-0.07,0.28l-3.02,2.78c-0.48,0.47-1.1,0.7-1.71,0.7c-0.62,0-1.24-0.23-1.71-0.7
		c-0.94-0.94-0.94-2.47,0-3.42l2.04-1.85l0.24-0.22C11.58,43.44,13.05,44.31,14.73,44.71z"/>
	<path class="st108" d="M39.9,81.733C24.175,77.747,12.072,64.673,9.508,48.43c-0.473-0.081-0.925-0.298-1.288-0.661
		c-0.94-0.94-0.94-2.47,0-3.42l0.821-0.745C9.02,43.068,9,42.532,9,41.99C9,22.835,22.143,6.748,39.9,2.247
		c0.639-0.656,1.351-1.087,2.11-1.217L42,0.99c-22.64,0-41,18.36-41,41s18.36,41,41,41l0.01-0.04
		C41.251,82.82,40.539,82.389,39.9,81.733"/>
	<path class="st109" d="M42.5,0.99c-0.17,0-0.33,0.01-0.49,0.04l0,0c-0.719,0.123-1.396,0.517-2.009,1.116
		C41.78,3.884,43,7.411,43,11.49c0,4.081-1.221,7.61-3.001,9.347c0.583,0.571,1.227,0.952,1.909,1.093c0,0,0.001,0,0.001,0
		c0.009,0.002,0.017,0.003,0.025,0.005c0.003,0.001,0.006,0.001,0.009,0.002c0.008,0.001,0.015,0.003,0.023,0.004
		c0.003,0.001,0.007,0.001,0.01,0.002c0.011,0.002,0.022,0.004,0.033,0.006c0.16,0.03,0.32,0.04,0.49,0.04c3.04,0,5.5-4.7,5.5-10.5
		S45.54,0.99,42.5,0.99"/>
	<path class="st110" d="M41.967,21.942c0.003,0.001,0.007,0.001,0.01,0.002C41.974,21.943,41.97,21.942,41.967,21.942
		 M41.935,21.936c0.003,0.001,0.006,0.001,0.009,0.002C41.941,21.937,41.938,21.936,41.935,21.936 M41.908,21.93
		c0,0,0.001,0,0.001,0C41.909,21.93,41.908,21.93,41.908,21.93"/>
	<path class="st111" d="M42.01,1.03c-0.72,0.123-1.399,0.514-2.012,1.113C40,2.143,40,2.144,40.001,2.145
		C40.614,1.546,41.291,1.153,42.01,1.03L42.01,1.03"/>
	<path class="st109" d="M42.5,61.99c-0.17,0-0.33,0.01-0.49,0.04l0,0c-0.011,0.002-0.022,0.004-0.033,0.006
		c-0.003,0.001-0.006,0.001-0.009,0.002c-0.008,0.002-0.016,0.003-0.025,0.005c-0.002,0-0.004,0.001-0.006,0.001
		c-0.009,0.002-0.018,0.004-0.028,0.006c-0.001,0-0.001,0-0.002,0c-0.682,0.141-1.326,0.522-1.909,1.093
		C41.779,64.88,43,68.409,43,72.49c0,4.079-1.219,7.606-2.998,9.344c0.582,0.569,1.222,0.952,1.901,1.095c0.001,0,0.001,0,0.002,0
		c0.01,0.002,0.019,0.004,0.029,0.006c0.002,0,0.005,0.001,0.007,0.001c0.008,0.002,0.016,0.003,0.025,0.005
		c0.003,0.001,0.007,0.001,0.011,0.002c0.011,0.002,0.023,0.004,0.034,0.006l0,0c0.16,0.03,0.32,0.04,0.49,0.04
		c3.04,0,5.5-4.7,5.5-10.5S45.54,61.99,42.5,61.99"/>
	<path class="st110" d="M41.909,62.049c0,0-0.001,0-0.002,0C41.908,62.049,41.909,62.049,41.909,62.049 M41.943,62.042
		c-0.002,0-0.004,0.001-0.006,0.001C41.939,62.043,41.941,62.043,41.943,62.042 M41.977,62.036
		c-0.003,0.001-0.006,0.001-0.009,0.002C41.971,62.037,41.974,62.036,41.977,62.036 M42.01,62.03L42.01,62.03L42.01,62.03"/>
	<path class="st111" d="M41.976,82.944c0.011,0.002,0.023,0.004,0.034,0.006C41.999,82.948,41.987,82.946,41.976,82.944
		 M41.94,82.937c0.008,0.002,0.016,0.003,0.025,0.005C41.957,82.94,41.948,82.939,41.94,82.937 M41.904,82.93
		c0.01,0.002,0.019,0.004,0.029,0.006C41.924,82.934,41.914,82.932,41.904,82.93 M40.001,81.834C40,81.835,40,81.836,39.999,81.837
		c0.582,0.569,1.224,0.95,1.904,1.092C41.223,82.787,40.583,82.403,40.001,81.834"/>
	<path class="st112" d="M42.5,60.99c-0.123,0-0.236,0.019-0.354,0.03L42,60.99c-10.477,0-19-8.523-19-19s8.523-19,19-19l0.148-0.03
		c0.116,0.01,0.23,0.03,0.352,0.03c3.645,0,6.5-5.051,6.5-11.5s-2.855-11.5-6.5-11.5c-0.123,0-0.236,0.019-0.354,0.03L42-0.01
		c-23.159,0-42,18.841-42,42c0,23.159,18.841,42,42,42l0.148-0.03c0.117,0.01,0.23,0.03,0.352,0.03c3.645,0,6.5-5.052,6.5-11.5
		S46.145,60.99,42.5,60.99z M47,11.49c0,5.599-2.371,9.5-4.5,9.5c-0.105,0-0.205-0.004-0.322-0.026C40.169,20.62,38,16.901,38,11.49
		s2.169-9.131,4.178-9.474l0.015-0.003C42.293,1.994,42.394,1.99,42.5,1.99C44.629,1.99,47,5.891,47,11.49z M2,41.99
		C2,21.061,18.16,3.846,38.656,2.14C37.024,4.21,36,7.588,36,11.49c0,4.156,1.158,7.727,2.974,9.744
		C28.827,22.708,21,31.44,21,41.99c0,0.305,0.033,0.602,0.046,0.904c-1.205,0.706-2.597,1.096-4.076,1.096
		c-0.705,0-1.371-0.083-2.008-0.252c-1.44-0.343-2.765-1.103-3.727-2.136C10.174,40.452,9.59,39.01,9.59,37.54c0-0.552-0.447-1-1-1
		s-1,0.448-1,1c0,1.648,0.545,3.259,1.542,4.633l-1.623,1.474c-1.323,1.337-1.321,3.504,0.005,4.831
		c0.641,0.64,1.499,0.992,2.416,0.992c0.905,0,1.761-0.35,2.387-0.964l2.915-2.683c0.559,0.099,1.135,0.166,1.738,0.166
		c1.514,0,2.969-0.32,4.281-0.928c1.348,9.135,8.585,16.358,17.727,17.685C37.157,64.765,36,68.335,36,72.49
		c0,3.902,1.024,7.281,2.653,9.35C18.159,80.132,2,62.918,2,41.99z M10.498,43.634c0.74,0.639,1.572,1.162,2.482,1.543l-2.04,1.878
		c-0.549,0.538-1.49,0.528-2.013,0.007c-0.55-0.55-0.548-1.452-0.035-1.972L10.498,43.634z M42.5,81.99
		c-0.107,0-0.209-0.005-0.321-0.025C40.169,81.621,38,77.9,38,72.49c0-5.411,2.169-9.131,4.178-9.474l0.015-0.003
		c0.101-0.019,0.201-0.023,0.308-0.023c2.129,0,4.5,3.901,4.5,9.5C47,78.089,44.629,81.99,42.5,81.99z"/>
	<path class="st112" d="M9.909,29.882c0.497,0.237,1.096,0.026,1.333-0.472c0.593-1.242,2.093-1.768,3.337-1.178
		c1.242,0.592,1.77,2.089,1.178,3.338c-0.237,0.499-0.024,1.096,0.475,1.332C16.37,32.969,16.516,33,16.659,33
		c0.375,0,0.733-0.211,0.904-0.571c1.064-2.244,0.111-4.936-2.125-6.002c-2.244-1.065-4.936-0.111-6.001,2.123
		C9.199,29.048,9.411,29.645,9.909,29.882z"/>
	<path class="st113" d="M26.142,11.99c-0.368,0-0.723-0.204-0.896-0.556c-0.246-0.495-0.043-1.095,0.451-1.34
		c1.288-0.638,2.632-1.187,3.994-1.631c0.525-0.172,1.09,0.116,1.261,0.641c0.171,0.525-0.116,1.09-0.642,1.261
		c-1.271,0.414-2.523,0.926-3.725,1.521C26.442,11.956,26.291,11.99,26.142,11.99z"/>
	<path class="st113" d="M16.26,19.99c-0.218,0-0.437-0.071-0.62-0.216c-0.433-0.343-0.506-0.972-0.163-1.405
		c1.977-2.493,4.321-4.647,6.971-6.403c0.46-0.306,1.08-0.179,1.387,0.281c0.305,0.46,0.179,1.081-0.281,1.386
		c-2.474,1.64-4.664,3.651-6.509,5.979C16.847,19.86,16.555,19.99,16.26,19.99z"/>
	<path class="st105" d="M96.64,95.333c-2.149,2.149-7.213,0.566-11.314-3.536c-4.101-4.101-5.685-9.164-3.535-11.314
		c0.12-0.12,0.24-0.226,0.375-0.318c2.326-1.648,7.064-0.021,10.939,3.854c3.875,3.875,5.501,8.612,3.854,10.939
		C96.866,95.092,96.76,95.213,96.64,95.333"/>
	<path class="st105" d="M53.506,52.2c-2.149,2.149-7.213,0.565-11.314-3.536c-4.102-4.101-5.685-9.164-3.536-11.314
		c0.12-0.12,0.241-0.227,0.375-0.319c2.326-1.647,7.064-0.021,10.939,3.854c3.875,3.875,5.501,8.613,3.853,10.939
		C53.732,51.959,53.626,52.079,53.506,52.2"/>
	<path class="st106" d="M96.993,94.979l-0.035-0.021c1.647-2.326,0.021-7.064-3.854-10.939c-3.875-3.875-8.612-5.501-10.939-3.854
		l-0.022-0.036c7.814-7.813,7.814-20.471,0-28.284c-7.813-7.814-20.471-7.814-28.284,0l-0.036-0.022
		c1.648-2.326,0.022-7.064-3.853-10.939c-3.875-3.875-8.613-5.501-10.939-3.854l-0.021-0.035c16.009-16.009,41.974-16.009,57.983,0
		S113.002,78.971,96.993,94.979"/>
	<path class="st114" d="M93.876,96.291c0.039,0.001,0.078,0.001,0.117,0.001l0,0C93.955,96.292,93.915,96.292,93.876,96.291
		 M96.526,95.44c-0.64,0.575-1.511,0.85-2.523,0.852C95.016,96.29,95.886,96.016,96.526,95.44 M96.64,95.333
		c-0.022,0.022-0.044,0.044-0.067,0.065C96.595,95.376,96.618,95.355,96.64,95.333 M82.37,80.033
		C82.37,80.033,82.37,80.033,82.37,80.033c-0.009,0.005-0.017,0.01-0.024,0.015c-0.002,0.001-0.003,0.002-0.005,0.003
		c-0.037,0.023-0.074,0.046-0.111,0.071C82.276,80.09,82.323,80.061,82.37,80.033 M82.399,80.016c0,0-0.001,0-0.001,0.001
		c-0.003,0.002-0.006,0.004-0.01,0.006c-0.002,0.001-0.004,0.002-0.006,0.004C82.387,80.023,82.393,80.019,82.399,80.016 M82.427,80
		c-0.002,0.001-0.004,0.002-0.006,0.003C82.423,80.002,82.425,80.001,82.427,80"/>
	<path class="st109" d="M84.374,79.53c-0.736,0.008-1.398,0.16-1.947,0.47c-0.002,0.001-0.004,0.002-0.006,0.003
		c-0.008,0.004-0.015,0.009-0.023,0.013c-0.006,0.003-0.011,0.007-0.017,0.01c-0.004,0.002-0.008,0.004-0.011,0.007
		c-0.047,0.028-0.094,0.058-0.14,0.088c-0.022,0.015-0.043,0.029-0.065,0.045l0,0c-0.135,0.092-0.255,0.198-0.375,0.318
		c-0.655,0.655-0.963,1.581-0.96,2.667c0.009,2.479,1.644,5.795,4.495,8.647c2.814,2.815,6.082,4.444,8.55,4.494
		c0.039,0.001,0.078,0.001,0.117,0.001c0.003,0,0.007,0,0.01,0c1.012-0.002,1.883-0.276,2.523-0.852
		c0.016-0.014,0.031-0.028,0.046-0.043c0.022-0.021,0.045-0.043,0.067-0.065l0,0c0.12-0.12,0.227-0.241,0.319-0.375
		c0.422-0.596,0.626-1.352,0.636-2.209c-0.023,0-0.046,0-0.069,0c-2.481,0-5.804-1.628-8.664-4.487
		C85.976,85.376,84.344,82.017,84.374,79.53"/>
	<path class="st110" d="M82.341,80.05c-0.06,0.036-0.118,0.075-0.176,0.115l0,0l0,0c0.021-0.015,0.043-0.03,0.065-0.045
		C82.267,80.097,82.304,80.073,82.341,80.05 M82.369,80.033c-0.008,0.005-0.016,0.009-0.024,0.014
		C82.354,80.043,82.361,80.038,82.369,80.033 M82.397,80.017c-0.003,0.002-0.006,0.004-0.01,0.006
		C82.391,80.02,82.394,80.018,82.397,80.017"/>
	<path class="st114" d="M50.831,53.159c0.01,0,0.019,0,0.029,0l0,0C50.85,53.159,50.841,53.159,50.831,53.159 M53.506,52.2
		c-0.649,0.649-1.563,0.957-2.636,0.959C51.943,53.157,52.858,52.848,53.506,52.2 M53.824,51.824L53.824,51.824
		c-0.08,0.118-0.171,0.225-0.273,0.33C53.653,52.049,53.744,51.942,53.824,51.824C53.824,51.825,53.824,51.825,53.824,51.824
		L53.824,51.824"/>
	<path class="st109" d="M41.241,36.396c-0.857,0.009-1.613,0.213-2.209,0.635l0,0c-0.134,0.092-0.254,0.198-0.375,0.319
		c-0.655,0.655-0.963,1.58-0.959,2.666c0.009,2.479,1.643,5.796,4.495,8.647c2.848,2.848,6.16,4.482,8.638,4.495
		c0.01,0,0.019,0,0.029,0c0.004,0,0.007,0,0.01,0c1.073-0.002,1.987-0.311,2.636-0.959l0,0c0.015-0.015,0.03-0.03,0.044-0.045
		c0.102-0.105,0.193-0.212,0.273-0.33l0,0c0.076-0.107,0.145-0.22,0.207-0.337c0.002-0.003,0.003-0.006,0.005-0.01
		c0.002-0.003,0.004-0.007,0.006-0.011c0.275-0.53,0.41-1.158,0.418-1.852c-0.023,0-0.046,0-0.069,0
		c-2.48,0-5.804-1.628-8.663-4.487C42.842,42.242,41.211,38.884,41.241,36.396"/>
	<path class="st110" d="M54.031,51.487c-0.062,0.117-0.131,0.23-0.207,0.337l0,0l0,0C53.9,51.717,53.969,51.605,54.031,51.487
		 M54.042,51.467c-0.002,0.003-0.004,0.007-0.006,0.011C54.038,51.474,54.04,51.471,54.042,51.467 M39.031,37.032L39.031,37.032
		L39.031,37.032L39.031,37.032"/>
	<path class="st108" d="M41.385,36.401c15.739-9.374,36.408-7.292,49.952,6.253s15.626,34.213,6.252,49.952
		c0.013,0.916-0.186,1.724-0.631,2.353l0.035,0.021c16.009-16.009,16.009-41.974,0-57.983c-16.009-16.009-41.974-16.009-57.983,0
		l0.021,0.035C39.66,36.587,40.469,36.388,41.385,36.401z"/>
	<path class="st112" d="M97.7,36.289c-16.375-16.376-43.021-16.376-59.396,0l-0.083,0.125l-0.271,0.229
		c-1.315,1.315-1.608,3.421-0.824,5.93c0.715,2.288,2.264,4.702,4.359,6.798s4.51,3.644,6.798,4.359
		c0.922,0.289,1.789,0.431,2.583,0.431c1.366,0,2.515-0.423,3.347-1.255c0.087-0.087,0.154-0.181,0.23-0.271l0.124-0.082
		c7.407-7.408,19.462-7.408,26.871,0c7.408,7.408,7.408,19.462,0,26.87l-0.082,0.123c-0.09,0.076-0.184,0.142-0.273,0.231
		c-1.315,1.315-1.607,3.422-0.823,5.931c0.715,2.287,2.264,4.701,4.359,6.797s4.51,3.645,6.797,4.359
		c0.923,0.289,1.79,0.432,2.585,0.432c1.366,0,2.514-0.423,3.346-1.255c0.087-0.087,0.154-0.181,0.23-0.271l0.124-0.082
		C114.076,79.31,114.076,52.665,97.7,36.289z M48.88,51.821c-1.984-0.62-4.108-1.993-5.98-3.864s-3.244-3.996-3.864-5.98
		c-0.543-1.738-0.423-3.167,0.329-3.919c0.075-0.075,0.148-0.143,0.246-0.209c0.42-0.297,0.999-0.45,1.692-0.45
		c2.053,0,5.101,1.335,7.961,4.195c3.826,3.826,4.923,7.99,3.744,9.654l-0.009,0.013l-0.2,0.232
		C52.046,52.245,50.617,52.365,48.88,51.821z M82.852,51.139c-0.216-0.216-0.449-0.402-0.672-0.607
		c0.352-1.351,1.061-2.611,2.106-3.657c0.499-0.499,1.029-0.912,1.6-1.242c1.26-0.775,2.733-1.165,4.145-1.125
		c1.562,0.063,2.996,0.67,4.036,1.709c0.391,0.39,1.023,0.39,1.414,0c0.391-0.391,0.391-1.024,0-1.415
		c-1.397-1.396-3.304-2.21-5.374-2.293c-1.846-0.062-3.653,0.426-5.245,1.406c-0.697,0.403-1.367,0.923-1.989,1.545
		c-1.071,1.071-1.873,2.326-2.371,3.683c-7.414-5.506-17.637-5.495-25.04,0.03c-0.14-2.714-1.846-6.057-4.784-8.995
		c-2.759-2.759-5.873-4.424-8.486-4.736c15.699-13.284,39.297-12.537,54.095,2.26c14.799,14.799,15.544,38.399,2.259,54.098
		c-0.31-2.617-1.974-5.73-4.733-8.489c-2.938-2.939-6.281-4.646-8.993-4.787C90.951,70.307,90.311,58.598,82.852,51.139z
		 M92.013,94.955c-1.984-0.621-4.108-1.993-5.979-3.865c-1.872-1.871-3.244-3.995-3.865-5.979c-0.543-1.739-0.423-3.167,0.326-3.917
		c0.078-0.077,0.154-0.146,0.249-0.212c0.42-0.298,1-0.45,1.693-0.45c2.052,0,5.101,1.335,7.961,4.195
		c3.826,3.826,4.923,7.99,3.744,9.653l-0.01,0.016l-0.199,0.23C95.18,95.379,93.752,95.497,92.013,94.955z"/>
	<path class="st112" d="M94.15,57.783c0.11,0,0.224-0.019,0.334-0.058c0.521-0.185,0.793-0.756,0.608-1.277
		c-0.459-1.296,0.228-2.729,1.527-3.192c1.288-0.459,2.729,0.226,3.192,1.529c0.186,0.52,0.754,0.791,1.278,0.606
		c0.521-0.186,0.791-0.757,0.606-1.278c-0.835-2.338-3.413-3.569-5.747-2.742c-2.339,0.834-3.568,3.412-2.742,5.745
		C93.353,57.526,93.738,57.783,94.15,57.783z"/>
	<path class="st113" d="M99.521,81.537c-0.152,0-0.307-0.035-0.452-0.108c-0.492-0.25-0.688-0.852-0.438-1.345
		c0.605-1.191,1.13-2.439,1.559-3.711c0.177-0.523,0.745-0.805,1.268-0.627c0.522,0.177,0.804,0.744,0.627,1.268
		c-0.459,1.361-1.021,2.699-1.67,3.977C100.237,81.337,99.887,81.537,99.521,81.537z"/>
	<path class="st113" d="M102.079,74.194l-0.199-0.02c-0.542-0.11-0.892-0.637-0.782-1.179c0.59-2.907,0.716-5.878,0.375-8.83
		c-0.063-0.549,0.33-1.045,0.879-1.108c0.547-0.069,1.044,0.33,1.107,0.878c0.365,3.161,0.23,6.343-0.4,9.457
		C102.962,73.867,102.545,74.194,102.079,74.194z"/>
	<path class="st105" d="M1.54,130.62c-1.712-2.512,0.784-7.192,5.576-10.46c4.792-3.268,10.061-3.884,11.774-1.372
		c0.096,0.141,0.178,0.278,0.243,0.428c1.187,2.592-1.292,6.945-5.819,10.032c-4.528,3.088-9.485,3.805-11.465,1.754
		C1.734,130.888,1.636,130.761,1.54,130.62"/>
	<path class="st105" d="M51.937,96.254c-1.712-2.511,0.785-7.192,5.577-10.46c4.792-3.268,10.061-3.884,11.773-1.371
		c0.096,0.14,0.178,0.278,0.243,0.427c1.186,2.592-1.292,6.945-5.819,10.033c-4.528,3.087-9.485,3.805-11.465,1.753
		C52.132,96.521,52.034,96.394,51.937,96.254"/>
	<path class="st106" d="M1.821,131.034l0.028-0.031c1.979,2.051,6.937,1.334,11.465-1.754c4.527-3.087,7.006-7.44,5.819-10.032
		l0.038-0.015c6.226,9.13,18.662,11.481,27.792,5.256c9.13-6.225,11.481-18.662,5.256-27.791l0.027-0.031
		c1.979,2.051,6.937,1.334,11.465-1.753c4.527-3.088,7.006-7.441,5.819-10.033l0.038-0.014c12.755,18.705,7.93,44.217-10.775,56.972
		C40.09,154.563,14.577,149.738,1.821,131.034"/>
	<path class="st114" d="M1.849,131.003L1.849,131.003c0.01,0.011,0.021,0.022,0.032,0.033l0,0
		C1.87,131.024,1.86,131.013,1.849,131.003 M15.158,117.244c-2.278,0.015-5.166,0.987-7.91,2.827
		C9.992,118.231,12.88,117.259,15.158,117.244 M15.213,117.244L15.213,117.244c0.004,0,0.009,0,0.013,0
		C15.221,117.244,15.217,117.244,15.213,117.244"/>
	<path class="st109" d="M15.213,117.244c-0.018,0-0.036,0-0.054,0c-2.278,0.015-5.166,0.988-7.91,2.827
		c-0.044,0.03-0.088,0.059-0.132,0.09l0,0c-3.762,2.566-6.11,6.002-6.116,8.576c-0.002,0.704,0.172,1.344,0.54,1.884
		c0.096,0.14,0.194,0.267,0.309,0.382l0,0c0.01,0.011,0.021,0.022,0.032,0.033c0.002,0.003,0.005,0.005,0.008,0.008
		c0.01,0.01,0.02,0.02,0.031,0.03c0.001,0.001,0.001,0.002,0.002,0.002c0.01,0.01,0.021,0.02,0.031,0.029
		c0.004,0.004,0.009,0.008,0.013,0.012c0.006,0.006,0.012,0.011,0.018,0.017c0.012,0.011,0.025,0.023,0.038,0.034
		c0.001,0.001,0.001,0.001,0.002,0.001c0.489,0.432,1.131,0.719,1.879,0.869c0.432-2.45,2.66-5.447,6.031-7.746
		c2.803-1.911,5.766-2.911,8.086-2.911c0.471,0,0.916,0.041,1.327,0.124c0.15-0.844,0.09-1.625-0.214-2.289l0,0l0,0
		c-0.065-0.149-0.148-0.287-0.243-0.428l0,0l0,0c-0.708-1.039-2.025-1.542-3.665-1.545
		C15.221,117.244,15.217,117.244,15.213,117.244"/>
	<path class="st110" d="M2.021,131.167c0,0,0.001,0.001,0.002,0.001C2.022,131.168,2.022,131.168,2.021,131.167 M1.965,131.116
		c0.006,0.006,0.012,0.011,0.018,0.017C1.977,131.128,1.971,131.122,1.965,131.116 M1.921,131.075c0.01,0.01,0.021,0.02,0.031,0.029
		C1.942,131.095,1.932,131.085,1.921,131.075 M1.889,131.043c0.01,0.01,0.02,0.02,0.031,0.03
		C1.909,131.063,1.899,131.053,1.889,131.043 M1.849,131.003c0.01,0.011,0.021,0.022,0.032,0.033
		C1.87,131.024,1.86,131.013,1.849,131.003 M19.133,119.216L19.133,119.216L19.133,119.216L19.133,119.216"/>
	<path class="st114" d="M52.247,96.636L52.247,96.636c0.01,0.01,0.02,0.02,0.029,0.03l0,0
		C52.266,96.656,52.256,96.646,52.247,96.636 M57.514,85.794L57.514,85.794c-3.762,2.566-6.11,6.002-6.117,8.576
		C51.404,91.796,53.752,88.359,57.514,85.794L57.514,85.794 M57.807,85.598c-0.032,0.021-0.064,0.042-0.095,0.063
		C57.743,85.64,57.775,85.619,57.807,85.598 M69.235,84.348c0.003,0.004,0.006,0.008,0.009,0.013
		C69.241,84.356,69.238,84.352,69.235,84.348 M65.583,82.877c-2.216,0.007-5.013,0.924-7.696,2.668
		C60.57,83.801,63.367,82.885,65.583,82.877 M65.611,82.877L65.611,82.877c0.004,0,0.008,0,0.013,0
		C65.619,82.877,65.615,82.877,65.611,82.877"/>
	<path class="st109" d="M65.611,82.877c-0.009,0-0.018,0-0.027,0c-2.216,0.007-5.014,0.924-7.696,2.668
		c-0.027,0.017-0.054,0.035-0.081,0.053c-0.032,0.021-0.064,0.042-0.095,0.063c-0.066,0.044-0.132,0.088-0.197,0.133l0,0
		c-3.762,2.566-6.11,6.002-6.117,8.576c-0.002,0.704,0.172,1.344,0.54,1.884c0.096,0.14,0.194,0.267,0.309,0.382l0,0
		c0.01,0.01,0.02,0.02,0.029,0.03c0.005,0.005,0.01,0.01,0.014,0.014c0.004,0.004,0.009,0.009,0.013,0.013
		c0.503,0.493,1.186,0.816,1.996,0.978c0.432-2.45,2.66-5.447,6.031-7.746c2.803-1.911,5.766-2.911,8.087-2.911
		c0.471,0,0.916,0.041,1.327,0.124c0.145-0.818,0.094-1.576-0.186-2.226v0c-0.004-0.01-0.009-0.02-0.013-0.03
		c0-0.001,0-0.001-0.001-0.002c-0.005-0.01-0.009-0.021-0.014-0.031l0,0c-0.065-0.149-0.147-0.287-0.243-0.427l0,0
		c-0.014-0.021-0.029-0.041-0.043-0.062c-0.003-0.004-0.006-0.008-0.009-0.013c-0.719-0.988-2.012-1.468-3.612-1.471
		C65.619,82.877,65.615,82.877,65.611,82.877"/>
	<path class="st110" d="M52.29,96.68c0.004,0.004,0.009,0.009,0.013,0.013C52.299,96.688,52.294,96.684,52.29,96.68 M52.247,96.636
		c0.01,0.01,0.02,0.02,0.029,0.03C52.266,96.656,52.256,96.646,52.247,96.636 M69.559,84.912L69.559,84.912L69.559,84.912
		 M69.545,84.881c0,0.001,0,0.001,0.001,0.002C69.545,84.882,69.545,84.881,69.545,84.881 M69.531,84.849L69.531,84.849
		L69.531,84.849L69.531,84.849"/>
	<path class="st108" d="M69.713,87.279c6.286,17.206,0.399,37.129-15.426,47.92s-36.521,8.996-50.244-3.139
		c-0.902-0.158-1.66-0.503-2.194-1.057l-0.028,0.031c12.755,18.705,38.268,23.53,56.973,10.775
		c18.705-12.755,23.53-38.268,10.775-56.973l-0.039,0.014C69.851,85.55,69.896,86.381,69.713,87.279z"/>
	
		<ellipse transform="matrix(0.8262 -0.5634 0.5634 0.8262 -70.3803 47.7808)" class="st4" cx="42.251" cy="137.96" rx="3.5" ry="3.5"/>
	<path class="st113" d="M19.018,139.503c-0.166,0-0.334-0.041-0.489-0.128c-1.254-0.706-2.464-1.507-3.598-2.381
		c-0.437-0.338-0.518-0.966-0.181-1.403c0.337-0.437,0.963-0.518,1.403-0.181c1.057,0.816,2.186,1.563,3.355,2.221
		c0.481,0.271,0.652,0.881,0.382,1.362C19.707,139.319,19.367,139.503,19.018,139.503z"/>
	<path class="st113" d="M31.195,143.158l-0.072-0.003c-3.174-0.228-6.275-0.952-9.219-2.152c-0.511-0.208-0.757-0.792-0.548-1.304
		s0.793-0.757,1.304-0.548c2.747,1.12,5.643,1.797,8.605,2.01c0.552,0.039,0.966,0.518,0.926,1.068
		C32.154,142.757,31.715,143.158,31.195,143.158z"/>
	<path class="st112" d="M70.396,84.271l-0.108-0.106c-0.057-0.102-0.104-0.206-0.173-0.307c-2.055-3.013-7.836-2.523-13.164,1.109
		c-2.449,1.67-4.419,3.754-5.546,5.869c-1.237,2.319-1.341,4.443-0.292,5.982c0.069,0.1,0.149,0.183,0.223,0.274l0.058,0.137
		c5.902,8.655,3.661,20.499-4.994,26.401c-4.194,2.859-9.246,3.92-14.235,2.974c-4.984-0.942-9.306-3.771-12.166-7.967l-0.109-0.107
		c-0.057-0.101-0.104-0.205-0.173-0.306c-1.047-1.536-3.06-2.219-5.674-1.911c-2.381,0.277-5.04,1.351-7.489,3.021
		s-4.419,3.754-5.546,5.868c-1.237,2.319-1.341,4.443-0.294,5.979c0.07,0.102,0.15,0.185,0.224,0.277l0.058,0.137
		c8.122,11.91,21.33,18.325,34.764,18.324c8.146-0.001,16.377-2.36,23.6-7.286C78.491,129.587,83.442,103.405,70.396,84.271z
		 M53.169,91.778c0.979-1.835,2.722-3.667,4.908-5.158c2.763-1.884,5.501-2.728,7.515-2.728c1.358,0,2.387,0.384,2.869,1.092
		c0.061,0.088,0.112,0.173,0.16,0.281c0.849,1.854-1.003,5.742-5.474,8.79c-4.47,3.05-8.766,3.353-10.181,1.886l-0.013-0.013
		l-0.19-0.238C52.164,94.811,52.312,93.385,53.169,91.778z M2.771,126.144c0.978-1.834,2.721-3.666,4.908-5.157
		c2.187-1.491,4.528-2.445,6.594-2.687c0.326-0.038,0.639-0.057,0.935-0.057c1.348,0,2.364,0.388,2.854,1.107
		c0.061,0.088,0.113,0.173,0.161,0.281c0.849,1.854-1.003,5.741-5.474,8.79s-8.768,3.351-10.182,1.886l-0.01-0.01l-0.192-0.242
		C1.767,129.178,1.914,127.752,2.771,126.144z M58.231,140.982c-17.295,11.795-40.634,8.137-53.589-7.851
		c0.2,0.014,0.391,0.044,0.599,0.044c2.532,0,5.648-1.063,8.636-3.101c3.432-2.341,5.729-5.308,6.373-7.944
		c3.042,3.324,7.039,5.588,11.543,6.44c1.314,0.248,2.634,0.371,3.943,0.371c3.336,0,6.605-0.81,9.585-2.356
		c1.471,0.132,2.901,0.688,4.144,1.639c0.56,0.427,1.039,0.897,1.442,1.42c0.936,1.147,1.527,2.556,1.663,3.96
		c0.145,1.558-0.268,3.058-1.16,4.226c-0.335,0.438-0.251,1.066,0.188,1.402c0.182,0.138,0.395,0.205,0.606,0.205
		c0.301,0,0.599-0.135,0.796-0.393c1.198-1.568,1.753-3.566,1.562-5.63c-0.177-1.823-0.905-3.564-2.088-5.013
		c-0.492-0.64-1.096-1.234-1.794-1.768c-0.895-0.684-1.876-1.192-2.898-1.545c8.51-5.995,11.222-17.24,6.761-26.362
		c0.352,0.048,0.715,0.081,1.096,0.081c2.532,0,5.647-1.063,8.635-3.101c3.224-2.198,5.439-4.948,6.23-7.458
		C80.639,106.143,75.521,129.191,58.231,140.982z"/>
	<path class="st112" d="M43.087,133.538c-1.181-0.223-2.379,0.027-3.371,0.704c-0.993,0.677-1.663,1.7-1.887,2.882
		c-0.223,1.181,0.027,2.378,0.704,3.371s1.7,1.663,2.882,1.886c0.282,0.054,0.564,0.08,0.846,0.08c0.896,0,1.77-0.268,2.525-0.783
		c0.993-0.677,1.663-1.7,1.886-2.882c0.224-1.181-0.026-2.378-0.703-3.371S44.269,133.762,43.087,133.538z M43.659,140.025
		c-1.139,0.777-2.697,0.481-3.474-0.657c-0.376-0.552-0.515-1.217-0.391-1.873s0.496-1.225,1.048-1.601
		c0.226-0.154,0.473-0.261,0.729-0.334c-0.461,0.661-0.497,1.562-0.016,2.268c0.622,0.913,1.866,1.148,2.779,0.526
		c0.162-0.111,0.295-0.246,0.413-0.39C44.746,138.761,44.366,139.544,43.659,140.025z"/>
</g>
</svg>
