<?xml version="1.0" encoding="utf-8"?>
<!-- Generator: Adobe Illustrator 19.2.1, SVG Export Plug-In . SVG Version: 6.00 Build 0)  -->
<svg version="1.1" id="Layer_1" xmlns="http://www.w3.org/2000/svg" xmlns:xlink="http://www.w3.org/1999/xlink" x="0px" y="0px"
	 viewBox="0 0 58.745 150" style="enable-background:new 0 0 58.745 150;" xml:space="preserve">
<style type="text/css">
	.st0{fill:#FFFFFF;}
	.st1{fill:#CBDEAE;}
	.st2{fill:#869A42;}
	.st3{fill:#6D6E71;}
	.st4{fill:#B6B8BA;}
	.st5{fill:#414042;}
	.st6{fill:#C6C5C6;}
	.st7{fill:#333233;}
	.st8{fill:#D7AC79;}
	.st9{fill:#FFD425;}
	.st10{fill:#C18049;}
	.st11{fill:#C39A61;}
	.st12{fill:#FFBB28;}
	.st13{fill:#B16F3B;}
	.st14{fill:#474A4C;}
	.st15{fill:#E0E1E2;}
	.st16{fill:#CED0D1;}
	.st17{fill:#6DD093;}
	.st18{fill:#73D9FF;}
	.st19{fill:#B3A092;}
	.st20{fill:#73747A;}
	.st21{fill:#E58B7E;}
	.st22{fill:#A3D3E3;}
	.st23{fill:#EDC98B;}
	.st24{fill:#C2E0BB;}
	.st25{fill:#F1B2AD;}
	.st26{fill:#EDB86E;}
	.st27{fill:#F1999C;}
	.st28{fill:#9F755A;}
</style>
<g>
	<g>
		<path class="st21" d="M57.245,147H45.499H24.995H13.249c-0.828,0-1.5,0.672-1.5,1.5s0.672,1.5,1.5,1.5h11.746h20.504h11.746
			c0.828,0,1.5-0.672,1.5-1.5S58.073,147,57.245,147z"/>
	</g>
	<g>
		<path class="st0" d="M34.8,41.909c0.5,1.58,0.04,3.13-1.01,3.46c-1.06,0.33-2.31-0.69-2.81-2.27c-0.49-1.58-0.03-3.13,1.02-3.46
			C33.06,39.309,34.31,40.329,34.8,41.909z"/>
	</g>
	<g>
		<path class="st0" d="M26.15,47.749c-1.06,0.32-2.31-0.69-2.8-2.27c-0.5-1.59-0.04-3.13,1.01-3.46c1.06-0.33,2.31,0.69,2.81,2.27
			C27.66,45.869,27.2,47.419,26.15,47.749z"/>
	</g>
	<g>
		<path class="st22" d="M54.93,73.659c0,0.13-0.04,0.26-0.13,0.36l-3.85,4.49l-0.76-0.65l-0.51-0.44l-1.77-1.52l1.96-2.28
			c1.24-1.44,3.42-1.61,4.87-0.37C54.87,73.359,54.93,73.509,54.93,73.659z"/>
	</g>
	<g>
		<path class="st23" d="M27.17,44.289c-0.5-1.58-1.75-2.6-2.81-2.27c-1.05,0.33-1.51,1.87-1.01,3.46c0.49,1.58,1.74,2.59,2.8,2.27
			C27.2,47.419,27.66,45.869,27.17,44.289z M28.56,20.809c5.64-1.75,11.64,1.4,13.39,7.04l9.39,30.18
			c1.75,5.65-1.4,11.64-7.04,13.39l-12.04,3.75c-0.05,0.01-0.09,0.03-0.14,0.04h-0.01c-5.6,1.65-11.51-1.49-13.24-7.08l-9.38-30.18
			c-1.76-5.64,1.39-11.64,7.03-13.39L28.56,20.809z M33.79,45.369c1.05-0.33,1.51-1.88,1.01-3.46c-0.49-1.58-1.74-2.6-2.8-2.27
			c-1.05,0.33-1.51,1.88-1.02,3.46C31.48,44.679,32.73,45.699,33.79,45.369z"/>
	</g>
	<g>
		<path class="st22" d="M36.76,80.049c1.82-0.57,3.76,0.45,4.33,2.27c0.02,0.05,0.03,0.11,0.03,0.16c0,0.24-0.15,0.46-0.39,0.53
			l-5.64,1.75l-0.3-0.95l-0.89-2.87L36.76,80.049z"/>
	</g>
	<g>
		<path class="st23" d="M21.55,137.999c-5.84-0.08-10.55-4.84-10.55-10.7v-11.3v-20.3c0-5.91,4.79-10.7,10.7-10.7h12.6
			c5.91,0,10.7,4.79,10.7,10.7v20.3v11.3c0,5.91-4.79,10.7-10.7,10.7H32H21.7C21.65,137.999,21.6,137.999,21.55,137.999z
			 M35.21,119.459c0.02-0.25-0.19-0.46-0.44-0.46H21.22c-0.25,0-0.46,0.21-0.45,0.46c0.23,3.94,3.38,6.53,7.22,6.53
			C31.84,125.989,34.99,123.399,35.21,119.459z M34,106.999c0-1.66-0.9-3-2-3c-1.1,0-2,1.34-2,3c0,1.66,0.9,3,2,3
			C33.1,109.999,34,108.659,34,106.999z M26,106.999c0-1.66-0.9-3-2-3s-2,1.34-2,3c0,1.66,0.9,3,2,3S26,108.659,26,106.999z"/>
	</g>
	<g>
		<path class="st24" d="M37.91,147.999H32v-1v-3h3c1.91,0,3.45,1.55,3.45,3.45C38.45,147.759,38.21,147.999,37.91,147.999z"/>
	</g>
	<g>
		<path class="st25" d="M35.21,119.459c-0.22,3.94-3.37,6.53-7.22,6.53c-3.84,0-6.99-2.59-7.22-6.53c-0.01-0.25,0.2-0.46,0.45-0.46
			h13.55C35.02,118.999,35.23,119.209,35.21,119.459z"/>
	</g>
	<g>
		<ellipse class="st0" cx="32" cy="106.999" rx="2" ry="3"/>
	</g>
	<g>
		<g>
			<path class="st26" d="M39.437,72.843c-0.05,0.01-0.09,0.03-0.14,0.04h-0.01c-5.6,1.65-11.51-1.49-13.24-7.08l-9.38-30.18
				c-1.627-5.215,0.949-10.731,5.804-12.917l-5.951,1.853c-5.64,1.75-8.79,7.75-7.03,13.39l9.38,30.18
				c1.73,5.59,7.64,8.73,13.24,7.08h0.01c0.05-0.01,0.09-0.03,0.14-0.04l12.04-3.75c0.425-0.132,0.831-0.295,1.227-0.473
				L39.437,72.843z"/>
		</g>
	</g>
	<g>
		<g>
			<path class="st26" d="M19,127.299v-11.3v-20.3c0-5.91,4.79-10.7,10.7-10.7h-8c-5.91,0-10.7,4.79-10.7,10.7v20.3v11.3
				c0,5.86,4.71,10.62,10.55,10.7c0.05,0,0.1,0,0.15,0h7.85C23.71,137.919,19,133.159,19,127.299z"/>
		</g>
	</g>
	<g>
		<path class="st24" d="M27.45,147.999h-5.9v-1v-3h3c1.9,0,3.45,1.55,3.45,3.45C28,147.759,27.76,147.999,27.45,147.999z"/>
	</g>
	<g>
		<path class="st27" d="M25,119.459c-0.01-0.25,0.2-0.46,0.45-0.46h-4.23c-0.25,0-0.46,0.21-0.45,0.46
			c0.23,3.94,3.38,6.53,7.22,6.53c0.737,0,1.447-0.097,2.117-0.278C27.282,124.947,25.186,122.645,25,119.459z"/>
	</g>
	<g>
		<ellipse class="st0" cx="24" cy="106.999" rx="2" ry="3"/>
	</g>
	<g>
		<path class="st25" d="M36.96,50.859c1.049-0.325,2.171,0.261,2.5,1.317c0.043,0.157,0.074,0.305,0.085,0.465
			c0.062,0.901-0.502,1.752-1.403,2.042L28.65,57.63c-1.049,0.325-2.171-0.261-2.5-1.317c-0.043-0.157-0.074-0.305-0.085-0.465
			c-0.062-0.901,0.502-1.752,1.404-2.032L36.96,50.859z"/>
	</g>
	<g>
		<path class="st27" d="M31.06,52.696l-3.592,1.119c-0.902,0.28-1.465,1.131-1.404,2.032c0.011,0.16,0.042,0.308,0.085,0.465
			c0.329,1.056,1.451,1.642,2.5,1.317l3.04-0.952c-0.93,0.102-1.836-0.461-2.127-1.393c-0.043-0.157-0.074-0.305-0.085-0.465
			C29.416,53.919,30.158,52.976,31.06,52.696"/>
	</g>
	<g>
		<path class="st28" d="M34.77,117.999H21.22c-0.393,0-0.774,0.163-1.047,0.447c-0.271,0.281-0.418,0.665-0.401,1.071
			c0.253,4.329,3.71,7.472,8.219,7.472c4.521,0,7.977-3.144,8.217-7.448c0.031-0.392-0.104-0.783-0.372-1.074
			C35.562,118.169,35.173,117.999,34.77,117.999z M27.99,124.989c-3.263,0-5.719-2.03-6.161-4.99h12.322
			C33.71,122.967,31.256,124.989,27.99,124.989z"/>
		<path class="st28" d="M24,102.999c-1.683,0-3,1.757-3,4s1.317,4,3,4s3-1.757,3-4S25.683,102.999,24,102.999z M24.997,107.051
			c-0.092-0.024-0.181-0.057-0.281-0.057c-0.62,0-1.122,0.502-1.122,1.122c0,0.361,0.182,0.668,0.447,0.873
			c-0.013,0.002-0.028,0.01-0.041,0.01c-0.398,0-1-0.798-1-2s0.602-2,1-2s1,0.798,1,2C25,107.017,24.997,107.033,24.997,107.051z"/>
		<path class="st28" d="M35,106.999c0-2.243-1.317-4-3-4s-3,1.757-3,4s1.317,4,3,4S35,109.242,35,106.999z M31,106.999
			c0-1.202,0.602-2,1-2s1,0.798,1,2c0,0.004-0.001,0.008-0.001,0.012c-0.028-0.002-0.052-0.016-0.08-0.016
			c-0.62,0-1.122,0.502-1.122,1.122c0,0.334,0.153,0.625,0.384,0.831c-0.063,0.031-0.124,0.052-0.181,0.052
			C31.602,108.999,31,108.201,31,106.999z"/>
		<path class="st28" d="M19.955,102.046c0.298-0.957,1.209-1.801,2.374-2.199c0.809-0.271,1.659-0.301,2.393-0.079
			c0.531,0.156,1.086-0.143,1.246-0.67c0.158-0.529-0.141-1.087-0.67-1.246c-1.128-0.338-2.409-0.304-3.611,0.102
			c-1.788,0.611-3.149,1.919-3.642,3.499c-0.164,0.526,0.131,1.088,0.658,1.252c0.099,0.03,0.198,0.045,0.297,0.045
			C19.427,102.749,19.821,102.475,19.955,102.046z"/>
		<path class="st28" d="M34.379,97.952c-1.198-0.404-2.477-0.44-3.607-0.101c-0.528,0.159-0.828,0.717-0.67,1.246
			c0.16,0.527,0.708,0.826,1.246,0.67c0.733-0.222,1.585-0.193,2.389,0.078c1.169,0.399,2.081,1.243,2.379,2.2
			c0.134,0.429,0.528,0.703,0.955,0.703c0.099,0,0.198-0.015,0.297-0.045c0.527-0.164,0.822-0.726,0.658-1.252
			C37.533,99.872,36.172,98.564,34.379,97.952z"/>
		<path class="st28" d="M55.609,102.206c-0.438-0.337-1.065-0.257-1.402,0.184L46,113.059v-17.36c0-4.994-3.151-9.255-7.565-10.931
			l2.573-0.798c0.654-0.19,1.111-0.803,1.111-1.49c0-0.13-0.019-0.329-0.076-0.459c-0.734-2.348-3.238-3.66-5.582-2.927
			l-1.903,0.593l-1.187-3.822l9.516-2.959l6.141,5.272l0.001-0.001l2.03,1.742l4.482-5.229c0.25-0.277,0.388-0.643,0.388-1.03
			c0-0.452-0.197-0.879-0.54-1.17c-1.862-1.592-4.679-1.379-6.278,0.479l-1.308,1.523l-2.687-2.306
			c5.822-2.112,9.032-8.465,7.179-14.451L47.53,42.417c0.005-0.018,0.017-0.032,0.022-0.05l3.89-15.93
			c0.131-0.537-0.198-1.078-0.734-1.209c-0.536-0.129-1.078,0.198-1.209,0.734l-3.117,12.764l-3.476-11.173
			c-1.911-6.158-8.479-9.611-14.644-7.698l-12.038,3.75c-2.982,0.925-5.424,2.958-6.877,5.723c-1.454,2.768-1.742,5.936-0.812,8.919
			l4.173,13.426v0l-3.89,15.93c-0.131,0.537,0.198,1.078,0.734,1.209c0.08,0.019,0.159,0.028,0.238,0.028
			c0.45,0,0.859-0.306,0.971-0.763l3.1-12.694l4.054,13.042c1.542,4.984,6.198,8.218,11.195,8.218c0.772,0,1.551-0.079,2.329-0.239
			l1.506,4.833l0.002-0.001l0.862,2.763H21.7c-6.451,0-11.7,5.249-11.7,11.7v17.36L1.793,102.39
			c-0.337-0.439-0.965-0.52-1.402-0.184c-0.438,0.337-0.52,0.965-0.184,1.402L10,116.339v10.96c0,6.027,4.643,11.047,10.55,11.636
			v4.064v1v5h6.9c0.869,0,1.55-0.681,1.55-1.55c0-2.454-1.996-4.45-4.45-4.45h-2v-4H31v4v1v5h6.91c0.85,0,1.54-0.695,1.54-1.55
			c0-2.454-1.996-4.45-4.45-4.45h-2v-4h1.3c6.451,0,11.7-5.249,11.7-11.7v-10.96l9.793-12.731
			C56.129,103.171,56.048,102.543,55.609,102.206z M50.628,74.272c0.779-0.906,2.087-1.102,3.089-0.526L50.841,77.1l-0.51-0.439
			l0.001-0.001l-1.003-0.861l-0.008-0.007L50.628,74.272z M31.995,74.205c-0.036,0.009-0.062,0.018-0.067,0.023l0.164,0.835
			l-0.022,0.006l-0.241-0.819c-5.062,1.491-10.446-1.387-12.003-6.417l-9.38-30.181c-0.772-2.474-0.533-5.1,0.672-7.394
			c1.204-2.292,3.228-3.977,5.7-4.744l12.038-3.75c5.11-1.585,10.556,1.277,12.14,6.382l9.39,30.179
			c1.583,5.111-1.279,10.556-6.383,12.14L31.995,74.205z M37.059,81.003c1.124-0.35,2.318,0.153,2.895,1.2l-4.209,1.306
			l-0.593-1.911L37.059,81.003z M24.55,144.999c1.197,0,2.197,0.863,2.409,2H22.55v-2H24.55z M35,144.999
			c1.197,0,2.197,0.863,2.409,2H33v-2H35z M44,127.299c0,5.349-4.352,9.7-9.7,9.7H21.563c-5.273-0.072-9.563-4.424-9.563-9.7v-31.6
			c0-5.349,4.352-9.7,9.7-9.7h12.6c0.046,0,0.089,0.006,0.135,0.007l0.001,0.003l0.008-0.003C39.725,86.084,44,90.399,44,95.699
			V127.299z"/>
		<path class="st28" d="M26.45,48.703c1.603-0.503,2.338-2.572,1.675-4.71l-0.002-0.005c-0.677-2.137-2.454-3.424-4.062-2.922
			c-0.825,0.259-1.462,0.963-1.746,1.93c-0.248,0.841-0.219,1.83,0.08,2.781c0.566,1.825,1.952,3.031,3.355,3.031
			C25.984,48.807,26.219,48.773,26.45,48.703z M24.304,45.179c-0.18-0.572-0.206-1.162-0.071-1.621
			c0.092-0.312,0.252-0.53,0.426-0.585c0.034-0.011,0.071-0.016,0.111-0.016c0.414,0,1.108,0.567,1.446,1.63
			c0.097,0.315,0.139,0.612,0.145,0.883c-0.521,0.097-0.922,0.533-0.922,1.081c0,0.067,0.027,0.124,0.038,0.188
			C25.072,46.565,24.568,46.034,24.304,45.179z"/>
		<path class="st28" d="M33.674,38.903c-0.65-0.342-1.334-0.419-1.974-0.218c-1.603,0.504-2.338,2.573-1.673,4.716
			c0.578,1.827,1.964,3.03,3.355,3.03c0.236,0,0.474-0.035,0.707-0.107c0.638-0.201,1.155-0.653,1.496-1.308
			c0.492-0.945,0.553-2.187,0.168-3.405C35.373,40.384,34.615,39.398,33.674,38.903z M31.936,42.803
			c-0.356-1.147-0.017-2.09,0.362-2.209c0.036-0.011,0.074-0.016,0.113-0.016c0.12,0,0.242,0.048,0.332,0.096
			c0.362,0.19,0.841,0.692,1.102,1.532l0.002,0.005c0.124,0.391,0.16,0.746,0.15,1.054c-0.555,0.035-0.99,0.467-1.035,1.02
			C32.59,44.054,32.173,43.554,31.936,42.803z"/>
		<path class="st28" d="M24.28,36.059c0-0.552-0.447-1-1-1s-1,0.448-1,1c0,1.006-0.619,2.079-1.62,2.803
			c-0.684,0.5-1.486,0.779-2.261,0.788c-0.553,0.006-0.995,0.458-0.989,1.011c0.006,0.549,0.452,0.989,1,0.989
			c0.004,0,0.007,0,0.011,0c1.188-0.013,2.401-0.429,3.415-1.17C23.344,39.389,24.28,37.695,24.28,36.059z"/>
		<path class="st28" d="M33.282,36.919c0.057,0.001,0.113,0.002,0.169,0.002c1.193,0,2.36-0.342,3.304-0.97
			c0.459-0.306,0.584-0.927,0.277-1.387c-0.307-0.46-0.927-0.585-1.387-0.277c-0.646,0.431-1.447,0.654-2.312,0.633
			c-1.235-0.031-2.354-0.562-2.919-1.386c-0.313-0.456-0.935-0.572-1.391-0.259c-0.455,0.312-0.571,0.935-0.26,1.39
			C29.687,36.009,31.418,36.873,33.282,36.919z"/>
		<path class="st28" d="M36.662,49.904l-9.489,2.956c-1.335,0.414-2.2,1.67-2.106,3.054c0.019,0.267,0.073,0.495,0.129,0.696
			c0.4,1.284,1.589,2.109,2.867,2.109c0.292,0,0.59-0.043,0.884-0.134l9.493-2.946l0.009-0.003c1.327-0.426,2.188-1.686,2.095-3.061
			c-0.015-0.212-0.051-0.416-0.128-0.696C39.923,50.302,38.245,49.412,36.662,49.904z M37.841,53.73l-9.487,2.945
			c-0.523,0.16-1.085-0.134-1.238-0.626c-0.025-0.091-0.047-0.176-0.053-0.27c-0.031-0.456,0.258-0.871,0.704-1.009l9.489-2.956
			c0.099-0.03,0.198-0.044,0.296-0.044c0.425,0,0.818,0.271,0.943,0.671c0.025,0.091,0.046,0.176,0.052,0.27
			C38.578,53.166,38.288,53.584,37.841,53.73z"/>
	</g>
</g>
</svg>
